<svg xmlns="http://www.w3.org/2000/svg" width="37.714" height="37.724" viewBox="0 0 37.714 37.724"><g transform="translate(-7.862 -8.08)"><path d="M45.495,25.153c-.057-.479-.117-.977-.2-1.463A18.814,18.814,0,0,0,29.324,8.26c-.312-.045-.629-.081-.935-.117l-.56-.063H25.62l-.678.087c-.481.057-.979.117-1.465.2a18.333,18.333,0,0,0-10.16,5.321A18.548,18.548,0,0,0,8.2,23.4,18.843,18.843,0,0,0,26.719,45.794v.01A19.017,19.017,0,0,0,44.469,33.352a18.057,18.057,0,0,0,1.042-4.944,1.847,1.847,0,0,1,.032-.2.539.539,0,0,0,.032-.2v-2.2C45.548,25.59,45.523,25.373,45.495,25.153ZM26.761,43.526a16.589,16.589,0,0,1-.042-33.179h.042a16.589,16.589,0,0,1,0,33.179Zm2.9-14.975-.912-.914-.2-.2-.308-.322,3.779-3.765c.562-.558,1.161-1.155,1.724-1.73a.956.956,0,0,0,.3-.684v-.026a.908.908,0,0,0-.3-.619.853.853,0,0,0-.573-.241h-.038a1.035,1.035,0,0,0-.688.322l-2.958,2.956-2.023,2.023-.2.188-.332.308-.338-.318-.156-.148L23.33,22.26l-.694-.7c-.4-.4-.829-.809-1.234-1.214a.961.961,0,0,0-.672-.291.862.862,0,0,0-.744.421.891.891,0,0,0,.19,1.181l3.13,3.152,1.865,1.861.016.014a1.226,1.226,0,0,1,.138.138l.15.16.255.271-.3.214-.127.091a.878.878,0,0,0-.113.077l-.022.016-2.818,2.812-.834.836-.441.437c-.316.314-.641.637-.951.959a.835.835,0,0,0-.216.925.86.86,0,0,0,.757.607h.016l.113-.012a1.011,1.011,0,0,0,.714-.356q2.007-2.011,4.02-4.022l.941-.939.01-.014a1.953,1.953,0,0,1,.172-.168l.32-.305L31.141,32.6q.668.674,1.337,1.331a.834.834,0,0,0,.589.283h.077a.959.959,0,0,0,.247-.032.856.856,0,0,0,.643-.744.936.936,0,0,0-.348-.864Q31.671,30.565,29.662,28.552Z" transform="translate(0 0)"/></g></svg>