<svg xmlns="http://www.w3.org/2000/svg" width="10.536" height="11.51" viewBox="0 0 10.536 11.51">
  <path id="Path_28357" data-name="Path 28357" d="M2.452,2.025l6.623-.946a.263.263,0,0,1,.3.224.267.267,0,0,1,0,.037V12.323a.263.263,0,0,1-.263.263l-.037,0-6.623-.946A.527.527,0,0,1,2,11.116V2.547A.527.527,0,0,1,2.452,2.025ZM9.9,2.09H12.01a.527.527,0,0,1,.527.527v8.429a.527.527,0,0,1-.527.527H9.9ZM6.32,6.831,7.8,4.724H6.531l-.843,1.2-.843-1.2H3.58L5.056,6.831,3.58,8.939H4.845l.843-1.2.843,1.2H7.8Z" transform="translate(-2 -1.076)"/>
</svg>
