<svg xmlns="http://www.w3.org/2000/svg" width="1365" height="1090.91" viewBox="0 0 1365 1090.91">
  <g id="Group_30" data-name="Group 30" transform="translate(-1 59.401)">
    <g id="Khelo_india_parttern" data-name="Khelo india parttern" transform="translate(46.356 -76.387)" style="mix-blend-mode: normal;isolation: isolate">
      <path id="Path_771" data-name="Path 771" d="M486.562,109.479c14.412.992,19.371-11.636,27.767-19.371,6.611-1.521,10.049-7.074,13.95-11.636s2.182-7.272-4.1-6.016H514.2l-19.833.727-5.289-.859h0c-.727-6.611,1.454-13.817-2.248-19.833a64.059,64.059,0,0,0-.793-19.833l1.785-4.628,9.123-.992a141.81,141.81,0,0,0,35.105-1.388l3.768,2.38c.331,5.686.661,11.371,1.058,17.057s.6,10.049.926,15.073c-1.917,7.669,1.322,10.247,8.925,10.644,10.247.529,20.362-4.694,30.543,0,.1.214-75.827,75-75.829,75.235-.338.336-6.281-13.619-7.008-20.825,0-3.107,1.256-7.272-3.041-8.594a8.859,8.859,0,0,0-8.793,3.636q-18.048,19.106-35.964,38.411c-3.438,2.975-6.611,5.95-10.247,9.057-14.148,13.222-25.916,28.362-41.981,39.138.042-.02-25.489-22.355-25.489-22.355,0-.51,40.791-41.922,40.625-41.814,0-.108,3.889-32.347-1.054-48.484-4.832,1.8-209.608,203.1-249.606,242.769-2.644,2.644-7.17,2.636-5.65,7.991,3.5,11.9,10.606,44.9,13.581,42.322,29.75-29.42,100.174-98.814,100.174-98.927-.259.033,21.757,23.683,21.9,23.748q-50.906,50.84-101.679,101.745c-3.768,3.768-9.189,6.611-8.925,13.222.595,13.222,2.4,39.489,2.446,39.667l-.463,3.107a302.457,302.457,0,0,0-39.667,1.917c-6.611.992-8.462,3.239-8.132,9.322.4,9.454,0,18.974.4,28.428l-5.355,5.619a14.677,14.677,0,0,1-12.759.529c-2.644-4.826-5.091-4.628-7.4,0l-8,.661L86.127,512.1l-1.653-2.578a15.668,15.668,0,0,0,0-9.983l1.058-7.867c4.1-6.082,1.19-12.826,1.983-19.172l3.438-3.305c1.983,0,3.438-.727,3.834-2.843a7.339,7.339,0,0,1,5.752-4.562L102.721,460c3.239-8.33,12.627-10.313,17.718-17.057,9.123-12.164,13.619-28.031,28.163-36.1a4.3,4.3,0,0,0,1.719-5.487c-1.058-2.38-3.438-2.248-5.421-2.182-8.264.4-16.594,1.521-24.858,1.388s-11.768,2.248-10.975,10.842c1.587,21.156-.4,17.123-16.991,17.85H82.094A105.782,105.782,0,0,0,80.97,412.07c-1.719-8.2,2.049-10.049,9.123-10.578,18.974-1.587,19.833-3.306,15.206-22.874,0-4.958-.463-9.917-.661-14.809V356.14c1.983-9.123,0-14.28-10.974-12.693-8,1.124-16.329-1.322-24.131,2.049h-12.3l-2.446-3.438h0a13.95,13.95,0,0,0,5.95-8.132.793.793,0,0,0,1.19-.4A79.333,79.333,0,0,0,82.623,313.7a105.775,105.775,0,0,0,19.833-19.833,21.287,21.287,0,0,0,8.793-10.049l3.372-.595c7.008-4.694,9.851-13.685,17.85-17.387,2.116-.992,3.834-3.372,1.719-4.628a10.578,10.578,0,0,0-14.611.727h-5.686c-3.967-5.223-7.669-5.686-11.041.595l-7.933-1.653c.793-1.256.595-1.587-.727-.793-.727-4.033-1.388-8-2.049-12.032a9.52,9.52,0,0,0,0-9.983,4.3,4.3,0,0,0,0-5.421,9.52,9.52,0,0,0,0-9.983c5.95-10.049,16.528-6.611,24.792-7.206,25.916-1.058,22.61-5.355,23.205,20.957v16.2c0,2.909,1.388,4.694,4.628,4.363a13.882,13.882,0,0,0,9.785,0c9.586,0,19.172,0,28.692.926a16.131,16.131,0,0,0,13.817-3.834c12.1-15.933,29.618-26.445,40.791-43.435h0a213.934,213.934,0,0,0,40.129-40.2h0a19.833,19.833,0,0,0,11.569-10.247l11.239-10.644c2.909,0,4.562-1.388,4.5-4.5l3.107-3.173a13.884,13.884,0,0,0,8.264-8.925l21.949-20.825a108.094,108.094,0,0,0,30.411-29.618l2.446-2.446C385.478,66.837,400.618,55.8,421.311,56.59h10.181c7.735-.331,11.107,4.165,12.429,11.041a93.078,93.078,0,0,0,1.256,24.99c1.058,6.611-6.148,14.809,4.1,19.371h7.338A67.037,67.037,0,0,0,486.562,109.479Z" transform="translate(217.414 153.562)" fill="#fbcb2c"/>
      <path id="Path_772" data-name="Path 772" d="M159.11,428.86c-7.4-1.256-10.842,4.5-15.4,8.528C129.624,449.883,118.65,465.75,102.32,475.8c0-30.081-4.231-60.1-2.843-90.176,1.224.131,14.807,13.756,14.82,13.437-.183.318,154.509-155.246,154.622-155.378.227-.095-18.338-17.669-19.833-20.825,11.57-7.6,104.559-102.529,104.482-102.447s3.941,6.982,4.205,10.552c.86,11.173-1.256,22.478,1.388,33.584,1.454,6.611,3.835,9.189,9.52,3.107,8.793-9.388,17.85-18.643,26.841-27.9a449.556,449.556,0,0,0,59.9-60.36l22.808-1.256c8.462,2.975,18.247-3.041,26.445,3.7-3.107,2.248-6.611,3.834-8.4,7.669a24.2,24.2,0,0,0-9.785,9.851l-5.421,4.958a5.686,5.686,0,0,0-3.57,4.628,1.587,1.587,0,0,0-1.322.859c-2.248.463-3.107,2.182-3.835,4.033a4.363,4.363,0,0,0-4.231,3.041,23.536,23.536,0,0,0-10.578,11.9h0a4.1,4.1,0,0,0-4.3,3.173h0a10.908,10.908,0,0,0-7.6,9.784l-1.256,2.512c-11.107,1.521-15.668,11.636-22.676,18.114-16.858,15.536-32.659,32.328-48.988,48.46-2.182,2.182-3.967,6.611-7.867,4.826s-1.388-5.157-2.248-7.8A136.055,136.055,0,0,1,359.89,177.9a35.18,35.18,0,0,0-4.562,2.843c-21.42,21.156-41.319,44.162-64.657,62.938-18.445,14.809-24.99,31.733-19.833,52.889a22.676,22.676,0,0,1-8.4,24c-33.055,30.213-63.334,62.541-95.2,93.547a19.172,19.172,0,0,0-8.132,14.743Z" transform="translate(466.591 448.09)" fill="#b8cf44"/>
      <path id="Path_773" data-name="Path 773" d="M108.427,372.524a19.172,19.172,0,0,1,8.2-14.478c31.866-31.006,62.475-63.334,95.2-93.547a22.676,22.676,0,0,0,8.4-24c-5.091-21.023,1.454-37.948,19.833-52.889,23.337-18.776,43.237-41.782,64.657-62.938a35.174,35.174,0,0,1,4.562-2.843,136.06,136.06,0,0,0,2.71,29.948c.859,2.644-1.19,6.611,2.248,7.8s5.686-2.644,7.867-4.826c16.329-16.131,32.13-33.056,48.988-48.46,7.008-6.611,11.57-16.594,22.676-18.115.4,2.512.793,5.091,1.124,7.6s-.4,5.289-.661,7.933a4.231,4.231,0,0,0,0,6.611l.859,15.073v6.082a137.381,137.381,0,0,0-33.056,32.262,34.578,34.578,0,0,0-9.123,6.611c-28.163,28.163-56.657,55.93-84.689,84.16-15.47,15.668-32.527,29.948-45.418,48.063-17.123,11.437-30.081,27.3-44.1,42.047l-2.446,2.248-65.45,63.665a173.15,173.15,0,0,1-2.38-38.014Z" transform="translate(517.273 504.426)" fill="#87bd4a"/>
      <path id="Path_774" data-name="Path 774" d="M133.988,331.736c.34-.545-68.138,0-68.138,0-.193-.2,238.116-235.454,238.2-235.719-.083-.075,30.173,30.861,30.808,30.972C335.921,128.578,178.862,284.957,133.988,331.736Z" transform="translate(279.473 548.256)" fill="#db612c"/>
      <path id="Path_775" data-name="Path 775" d="M184.938,232.795c.25.08-109.5,105.636-109.725,105.183s-7.026-54.619-7.252-54.393c0-.68,256.949-250.093,256.609-249.924.17,0,8.4,29.717,4.929,46.234-2.777,10.181-150.8,146.649-150.77,146.351C179.042,225.865,185.188,232.535,184.938,232.795Z" transform="translate(301.532 211.259)" fill="#f19a27"/>
      <path id="Path_776" data-name="Path 776" d="M286.859,250.644c-8.991,9.255-18.048,18.511-26.841,27.9-5.686,6.082-8.066,3.372-9.52-3.107-2.644-11.107-.529-22.412-1.388-33.584,0-3.5-2.932-6.133-2.939-6.359s-4.883,1.63-4.986,1.7l-99.947,97.68c.078-.063-22.607-23.853-22.7-24.331V311a22.344,22.344,0,0,1,3.041-3.9q56.856-56.723,113.844-113.381c34.312-33.981,68.623-68.028,103.4-101.547,13.222-13.222,29.088-35.659,45.483-45.245,1.785,18.577,2.712,45.179-13.882,60.252l-4.958,5.619a15.073,15.073,0,0,0-7.735,6.611l-2.446,2.644a14.346,14.346,0,0,0-7.14,7.6l-2.909,2.578c-3.768.6-5.289,3.372-6.611,6.611-2.843,2.909-5.752,5.752-8.661,8.594l-2.843,1.983h0l-2.446,2.777a1.058,1.058,0,0,0-.463,1.256l-3.967,3.835-5.421,5.091a8.132,8.132,0,0,0-7.338,7.537l-7.8,7.471c-7.537,2.248-9.784,9.785-14.743,14.677a430.1,430.1,0,0,0,1.917,58.575Z" transform="translate(575.123 337.202)" fill="#87bd4a"/>
      <path id="Path_777" data-name="Path 777" d="M297.835,112.25c-.165.245-49.208,49.435-49.746,48.784.086.2-16.368-8.538-30.78,6.271C189.542,195.468,77.655,304.447,77.34,304.494c-4.694-2.446-2.061-54.745-1.631-54.665C78.552,241.632,255.236,68.068,255,68.056,255,68.056,297.791,112.219,297.835,112.25Z" transform="translate(348.494 389.337)" fill="#f5a842"/>
      <path id="Path_778" data-name="Path 778" d="M230.884,131.925c-1.388,30.081,2.265,59.508,2.2,89.589-22.61,4.033-45.551,2.644-68.359,3.438-11.834.331-16.792,3.173-15.867,16.329,1.124,17.718,0,35.7-.463,53.55h-.859l-8.132.727h-7.338a343.093,343.093,0,0,0-53.418,0c-4.826-14.148-1.785-28.692-2.049-43.038-.529-30.742,0-30.742,31.072-30.742,9.586,0,19.238-.595,28.758,0s11.834-2.711,10.776-11.305c-.661-5.752-.331-11.636-.463-17.519h0l-.4-7.6h0a50.3,50.3,0,0,0-.463-8.33l3.768-.859h17.321a5.157,5.157,0,0,0,5.752-1.058c16.66-17.255,35.74-32.7,50.682-51.61.228.3,7.443,8.2,7.479,8.431ZM102.381,254.04c5.289.859,6.611-9.255,13.222-3.636,8.462,7.669,12.164-.727,16.991-4.958,1.983-1.719,3.57-3.834,1.19-6.611s-4.76-.925-6.214.926c-4.165,5.091-7.735,5.355-11.7,0-1.454-2.049-4.3-3.768-6.148-.727-2.777,4.5-8.4,6.942-9.057,12.759C100.332,252.652,101.919,253.512,102.381,254.04ZM115.6,270.105c-1.124,1.322-2.512,2.777-3.636,4.363s-6.016,3.7-2.711,6.611,6.214.727,8.595-2.049,3.438-3.636,4.892-5.62c5.024-7.206-2.777-9.057-5.686-12.826-1.653-2.182-4.3-5.686-7.008-2.843-4.958,5.091,1.653,6.611,3.834,9.388C114.348,268.056,114.744,268.717,115.6,270.105Zm-8.2-.793c-1.454-1.785-3.107-3.107-5.223-2.182a21.156,21.156,0,0,0-11.437,12.3c-.859,2.116,1.917,3.041,3.107,2.644a28.363,28.363,0,0,0,13.553-12.759Z" transform="translate(335.827 702.375)" fill="#0e9549"/>
      <path id="Path_779" data-name="Path 779" d="M250.226,83.182V93.693c-.463,13.222-.992,26.444-1.455,39.667h-.859l-.727.529H191.916l-47.468-.793c-1.124-34.841-1.256-69.747,0-104.588l2.711-1.851h52.36c.859,1.19,1.785,1.19,2.711,0h4.826c.926,1.19,1.851,1.124,2.777,0h17.189c.992,1.124,1.983,1.058,2.975,0l17.519-.4c.793,2.182,1.521,4.429,2.314,6.611ZM201.37,68.9c-1.983-11.9-7.206-14.809-15.668-5.223-1.256,1.388-2.512,2.711-3.9,1.19-12.627-14.148-14.214,5.157-21.486,7.272-2.909.859-1.653,4.033.463,6.016s4.033,1.719,5.289,0c9.123-14.148,21.288,6.611,30.808-2.777a20.281,20.281,0,0,1,1.587,1.917c2.248,3.5,4.628,3.239,6.611,0,5.223-7.206,10.38-7.338,15.8,0,1.587,2.116,3.636,3.834,6.148,1.058s1.52-4.165,0-6.611C219.22,59.845,213.2,58.985,201.37,68.9ZM191.916,96.47l-14.28-12.429c-2.049-1.719-4.1-2.909-6.611,0s-.793,4.826,1.256,6.611c8.132,5.487,6.611,10.049-.727,14.743a3.9,3.9,0,0,0-.86,6.611c1.058.992,3.7,2.248,4.165,1.785,5.355-5.421,10.247-10.446,17.057-17.321Zm24.792-9.983c-1.124-2.975-2.711-4.694-5.62-2.512-4.628,3.438-11.041,6.016-12.032,12.1-1.19,7.4,7.074,9.256,10.512,14.148,1.455,2.182,3.636,3.7,6.215,1.19a3.9,3.9,0,0,0-.727-6.611c-7.206-5.223-4.3-10.247,0-15.4a20.5,20.5,0,0,0,1.653-2.909Zm-64.26,26.775c5.223-4.958,10.313-9.718,15.139-14.677.463-.4-.727-3.5-1.719-3.967-7.867-3.57-8.991,4.958-13.222,7.867-2.446,1.719-7.206,4.1-3.438,8.793.595.859,1.917,1.19,3.239,1.983ZM245,108.04c0-3.306-13.222-15.073-15.47-14.28a4.363,4.363,0,0,0-3.041,4.76,43.832,43.832,0,0,0,15.933,14.412c2.512-.727,2.049-3.107,2.512-4.892Z" transform="translate(715.484 156.985)" fill="#db612c"/>
      <path id="Path_780" data-name="Path 780" d="M165.511,238.414c13.222-18.114,29.948-32.394,45.418-48.063,28.031-28.229,56.525-56,84.689-84.16a34.579,34.579,0,0,1,9.123-6.611c.859,14.346,1.653,28.626,2.446,42.972l-52.823,52.36a448.662,448.662,0,0,0-40.592,41.782A436.327,436.327,0,0,0,170.8,277.948a11.041,11.041,0,0,0-1.785,12.693v7.6c0,9.255,0,18.511.463,27.767a2.248,2.248,0,0,0-1.587,1.719c-12.826,0-25.651,0-38.411,1.256-7.272.529-9.322-2.182-9.454-8.859,0-12.429-1.058-24.792-1.587-37.155l2.446-2.248c12.429,0,24.858-.661,37.221,0,7.537,0,9.123-2.777,8.594-9.52C166.3,259.966,166.04,249.19,165.511,238.414Z" transform="translate(574.562 568.393)" fill="#0e9549"/>
      <path id="Path_782" data-name="Path 782" d="M103.74,123.094c.2.34,50.511-48.614,50.443-48.724.068.11,56,54.9,73.45,73.119L177.388,196.61C177.028,196.524,103.6,123.434,103.74,123.094Z" transform="translate(492.078 426.936)" fill="#db612c"/>
      <path id="Path_783" data-name="Path 783" d="M126,137.388a2.248,2.248,0,0,1,1.587-1.719l19.833-.727h35.171l7.4-.463c7.6,2.049,15.007-1.851,22.544-.859A4.828,4.828,0,0,0,213.6,135.6a7.272,7.272,0,0,0,1.454,7.669v10.049a262.787,262.787,0,0,0,1.652,49.451c1.653,11.437-.859,16.859-13.751,16.2a65.316,65.316,0,0,0-28.1,1.851l-22.544.463-22.544-.4c-.992-24.461-1.917-48.922-2.975-73.384C126.6,144,126,140.694,126,137.388Zm56.062,37.221a12.1,12.1,0,0,0-1.521-3.24,101.218,101.218,0,0,0-15.47-14.214c-5.553-4.628-6.611,5.091-11.107,7.008-2.314,1.058-5.95,2.446-4.429,6.611.793,1.983,3.768,3.834,5.024,2.314,8.594-10.644,13.685-2.446,19.833,3.173,2.578,2.578,5.553,2.644,7.669-1.653Zm-9.784,18.776a29.618,29.618,0,0,0-12.826-12.1c-2.248-1.058-4.562,1.454-3.5,3.306,3.438,6.082,5.752,11.569,0,17.718-1.388,1.455,1.124,4.43,3.239,3.372A33.714,33.714,0,0,0,172.278,193.384Zm-20.428,1.388c0-2.578-1.719-4.5-3.041-3.7a24.263,24.263,0,0,0-12.826,12.164,3.306,3.306,0,0,0,3.636,3.835c6.611-1.587,7.272-9.19,12.032-12.3Z" transform="translate(616.982 758.47)" fill="#b8cf44"/>
      <path id="Path_784" data-name="Path 784" d="M156.931,110.69v39.27c0,3.9-1.19,8.462,3.5,10.908-9.851,14.611-23.6,25.585-35.9,37.816a20.164,20.164,0,0,0-15.47,15.4l-2.248,2.116a31.8,31.8,0,0,0-19.833,19.833L85,238.35c-6.611.463-12.231,9.917-19.833,2.777,0-7.735-.595-15.4-.859-23.139a6.148,6.148,0,0,0,0-9.454v-5.487a2.909,2.909,0,0,0,0-2.446,7.666,7.666,0,0,1-.529-2.116l3.7-2.777h34.642c4.231,0,10.578-.727,9.454-5.223-2.975-11.768,2.248-24.66-5.355-35.568,6.611-11.7,2.711-23.734.992-35.634,0-1.851-2.711-.992-4.3-.793a6.611,6.611,0,0,0-5.95,6.214l-.595.595a2.116,2.116,0,0,0-1.587,1.653l-2.049,1.587-2.38,2.446h0L88.043,133.5h0l-5.091-.992c0-9.454,0-18.974-.4-28.428,0-6.082,1.653-8.33,8.132-9.322a314.621,314.621,0,0,1,39.667-1.983c-6.611,5.95-12.76,11.834-19.833,18.643C126.586,115.582,141.659,108.111,156.931,110.69Z" transform="translate(267.858 530.045)" fill="#db612c"/>
      <path id="Path_785" data-name="Path 785" d="M139,158.047l52.889-51.9a1.322,1.322,0,0,1,1.058.859,197.683,197.683,0,0,0,2.182,49.187l.595,41.253c0,5.289.463,10.644.661,16-2.644,5.95.926,13.222-5.024,18.71-14.743,13.222-29.155,27.37-43.766,41.121h0c-.463-9.917-.859-19.833-1.256-29.816,0-1.587-.331-3.173-.463-4.694,2.314-10.049-2.909-19.833-1.454-29.816V169.286C144.62,164.658,144.289,160.1,139,158.047Z" transform="translate(689.926 605.258)" fill="#87bd4a"/>
      <path id="Path_786" data-name="Path 786" d="M171.966,227.535c-26.444-1.653-52.889-.727-79.333-.463h0c.661-13.222,1.322-26.444,1.851-39.667,0-7.6.463-13.222-11.173-10.512C70.089,180.067,67.18,176.1,67.511,164c0-5.157,2.248-8.925,7.272-7.471,13.222,4.1,24.726-6.611,37.948-5.024a411.111,411.111,0,0,0,41.386.463c15.734,0,15.668,0,15.734,16a370.219,370.219,0,0,0,1.454,59.9Zm-40.658-36.692c7.272-3.9,13.95-8.991,23.073-3.768-1.521-7.074-5.553-13.222-9.322-12.3-7.272,1.256-10.115,9.124-13.751,16.065Zm14.148.463c-5.289-.661-6.611,3.636-9.057,6.016-4.231,4.1,0,6.611,2.314,9.189s3.636,4.826,5.884,3.372c4.694-3.107,0-5.223-1.521-7.8C140.7,198.05,147.175,196.132,145.456,191.306Zm-39.667,18.842c3.7-3.5,11.305-4.231,9.057-10.842a9.85,9.85,0,0,0-12.429-7.471C111.475,197.719,105.987,203.6,105.789,210.148Zm44.427-10.115c3.306,3.107,3.438,9.388,9.454,9.652.529,0,1.851-2.38,1.521-2.909C159.207,202.876,156.827,199.107,150.216,200.033Z" transform="translate(288.654 858.855)" fill="#b8cf44"/>
      <path id="Path_787" data-name="Path 787" d="M83,258.68c14.346-18.908,33.056-33.915,49.253-50.641,33.651-34.113,106.505-107.3,106.505-107.3.3.06,20.2,20,20.422,20.229-.152.456-143.914,144.367-143.687,143.914L83,258.68Z" transform="translate(375.703 574.901)" fill="#0e9549"/>
      <path id="Path_788" data-name="Path 788" d="M115.338,289.879l49.886-48.884c.173-.1,16.547,15.818,16.943,15.767-.4.051,200.449-203.669,214.4-217.685.34,0,9.179,10.879,9.179,10.879.34-.34-265.842,264.952-265.842,264.952h0s-24.546-24.968-24.565-25.028Z" transform="translate(554.024 333.496)" fill="#0e9549"/>
      <path id="Path_789" data-name="Path 789" d="M86.85,149.35h.859c20.494,0,40.989.859,61.483.595,8.925,0,12.826,2.049,12.429,11.9-.727,17.123-.463,34.312,0,51.435,0,7.867-1.851,11.305-10.512,10.975-17.586-.6-35.171-.463-52.889,0-8.594,0-11.7-2.446-11.5-11.371.529-20.891,0-41.848,0-62.74Zm51.567,28.692a16.99,16.99,0,0,0-7.206-9.057c-2.049-1.322-5.619,0-5.355.991,1.917,6.942-4.694,12.1-3.967,17.982a17.189,17.189,0,0,0,11.437,12.363c2.512,1.058,6.016-1.983,4.231-3.9-6.215-6.743-6.942-12.627.859-18.379Zm-15.734,23.139c-.661-3.57-4.363-5.223-6.611-7.8s-4.165-6.611-7.669-4.562-1.851,6.214.661,8.661c4.562,4.3.595,7.206-1.058,10.776s-1.124,6.611,3.173,5.487a16.991,16.991,0,0,0,11.5-12.561Z" transform="translate(396.513 847.658)" fill="#b8cf44"/>
      <path id="Path_790" data-name="Path 790" d="M141.045,141.574a204.084,204.084,0,0,0,23.8,0c10.578-1.256,12.76,4.1,12.627,13.222,0,17.453-.463,34.973,0,52.426,0,7.074-2.711,9.454-9.652,9.322-18.313-.331-36.692,0-55.071,0-5.487,0-9.652-.529-9.454-8,.595-18.776.926-37.551.529-56.327,0-8.727,3.636-10.644,11.239-10.247,8.727.4,17.52,0,26.444,0ZM118.7,168.481c-2.182,1.256-7.669-1.851-8.727,3.041-1.388,6.611,4.562,4.1,7.6,4.76s5.157,1.256,5.025,4.363c-.463,13.222,9.057,7.338,15.007,8.066a4.694,4.694,0,0,0,5.619-3.769c.331-3.57-2.975-3.372-5.355-3.438-4.165,0-7.14-1.322-7.272-6.611-.331-7.074-5.818-6.545-11.966-6.413Zm39.667,12.5c-3.107,2.248-10.446-2.512-10.842,3.768s6.611,3.768,10.776,4.033,9.851,2.38,10.247-3.306S162.531,182.233,158.366,180.976Z" transform="translate(489.547 803.008)" fill="#b8cf44"/>
      <path id="Path_791" data-name="Path 791" d="M151.148,118.859l-3.7,2.777c-23.8-1.058-23.8-1.058-23.469,23.073,0,11.3,0,22.544.529,33.783,0,6.611-2.248,10.049-9.256,10.379-16.594.727-33.056,1.719-49.848,2.644a2.38,2.38,0,0,0-2.38,0h-7.6l-3.57-9.917C49.4,166,49.8,150.2,48.874,134.461c-.463-8.33,1.454-12.231,10.71-12.3,15.007,0,30.014-2.38,45.022-1.851,10.908,0,16.263-2.975,16.528-13.883,4.5,2.777-1.058,12.032,7.338,12.032,6.611,0,13.222,1.851,19.106-2.314l3.372.661ZM93.036,149.072l-.529-3.173-1.454.793,2.049,2.314c4.3,11.239,13.222-2.909,19.833,7.272C107.713,138.3,99.647,147.551,93.036,149.072Zm-8.132-3.9c-19.833,3.9-19.833,3.9-21.089,6.611C70.823,150.262,80.145,158.063,84.9,145.171Zm21.023,12.164c-4.628,2.578-11.9,2.578-10.842,9.123a7.6,7.6,0,0,0,11.7,5.818C101.829,167.583,104.606,163.087,105.928,157.336ZM66.922,154.89c4.562,8.33,1.322,14.082,1.851,21.222,8.661-6.413,13.288-11.966-1.851-21.222Z" transform="translate(183.861 606.829)" fill="#f5a842"/>
      <path id="Path_792" data-name="Path 792" d="M101.048,166.849c-17.123,0-34.246,0-51.368.529-6.611,0-8.594-2.248-8.528-8.793.331-20.891,0-41.782,0-62.674a97.382,97.382,0,0,1,32.461-1.388h29.75c4.694,0,9.189,0,11.636,4.892a52.889,52.889,0,0,1,0,17.916s-.595.529-.529.661a6.216,6.216,0,0,0,.661,1.521l1.19,2.711a2.38,2.38,0,0,0,0,2.38l-1.124,2.777a4.5,4.5,0,0,0,0,7.206l1.058,2.644-1.719,2.975a4.958,4.958,0,0,0,0,6.611l1.454,2.843L114.4,164.734C110.171,165.527,105.147,163.147,101.048,166.849ZM75.728,129.695c1.454-11.5-9.123-14.544-15.007-20.495-1.19-1.256-3.239-1.653-4.033,0a4.694,4.694,0,0,0,.727,4.363A60.823,60.823,0,0,0,75.86,129.43c-5.289,10.247-10.379,20.627-25.916,22.213a74.97,74.97,0,0,0,44.823-.992l-22.875-1.388c3.372-7.471,6.214-13.222,15.47-7.074,3.239,2.248,6.611-.859,8.066-3.9.992-1.785.463-5.091-2.049-4.628C86.438,134.984,82.206,128.372,75.728,129.695Z" transform="translate(140.876 535.766)" fill="#ec9f42"/>
      <path id="Path_793" data-name="Path 793" d="M234.385,105.148c0,6.611,0,13.222-.463,19.833l-4.76,1.454H224.4a78.01,78.01,0,0,0-22.874,0H164.109c-6.611-1.785-4.694-6.942-4.76-11.305,0-13.222-.4-26.445-.529-39.667V55.5a2.182,2.182,0,0,0,.463-1.653L188.9,52.92H198.95l34.708.661h0l.793,24.593v22.544Zm-16.991,9.917h5.223c4.363-1.124,9.917-2.314,5.752-8.264a60.559,60.559,0,0,0-13.222-12.627c-4.033-3.173-5.619,0-6.611,3.7h-6.611c-1.52.529-4.165.727-4.3,1.521-1.587,7.338,6.016,9.52,8.793,14.544C208.536,117.511,212.9,120.287,217.395,115.065Zm1.124-27.5A11.5,11.5,0,0,0,210.585,71.7c-8.264-2.314-11.239,6.611-16.528,10.776-1.917,1.454-3.7,3.967-1.256,6.611s5.355,0,6.611-1.388c5.752-8.991,12.032-8.991,19.106-.132ZM173.232,60.655c-4.033.4-5.421,2.909-3.5,5.157a118.139,118.139,0,0,0,15.007,14.875c2.644,2.182,5.223-.793,4.1-3.372C185.265,69.911,177.331,66.671,173.232,60.655Z" transform="translate(801.139 306.577)" fill="#87bd4a"/>
      <path id="Path_794" data-name="Path 794" d="M229.479,141.277H171.632c-7.206,0-10.974-2.182-10.578-10.842.793-20.759.4-41.518.463-62.343h0l50.377-.992h4.76c5.157,2.975,15.735-4.231,15.668,8.33,0,21.817-.4,43.7-.6,65.516h0A3.5,3.5,0,0,0,229.479,141.277ZM203.564,108.75c7.471-4.3,15.338-8.066,17.189-15.47,1.521-5.95-6.611-8.793-10.908-12.3-1.653-1.256-4.033-4.165-6.611-1.454s0,4.562,2.248,6.016c7.4,5.421,6.611,10.578,0,15.8C203.828,102.6,202.44,104.188,203.564,108.75ZM191.4,88.057h-4.1c-4.694,0-8.264,1.454-7.933,7.008,0,3.57-1.256,8.727,2.578,10.115,6.148,2.116,3.9-4.363,5.355-7.008s3.173-2.248,5.223-2.578c3.24-.6,8.925,1.454,8-4.5s-6.215-2.248-9.123-3.041Zm-7.338,32.527c1.058,3.306-2.38,9.586,4.165,9.322,5.157,0,3.239-5.884,3.107-9.123s2.512-9.652-4.033-9.388c-5.289.264-2.248,5.95-3.24,9.189Zm-9.388,9.123c1.19-6.148,7.6-10.644,5.091-17.718,0,0-2.909-.4-3.173,0-3.041,5.487-6.413,10.842-1.917,17.718Z" transform="translate(813.515 386.143)" fill="#b8cf44"/>
      <path id="Path_795" data-name="Path 795" d="M140.536,210.3c12.627.661,8.528,10.644,8.264,16.925-.4,8.727-8.264,4.1-12.826,4.892-7.933,1.322-10.446-3.173-9.718-10.379s-2.975-9.983-10.313-9.851c-17.123.4-34.246,0-51.368,0-4.033,0-8.661,1.322-10.776-3.9s1.983-8.2,5.223-11.239c.463-.926,1.521-2.248,1.256-2.644-1.256-1.785-2.446-.6-3.5.463-6.611-9.322-1.851-19.833-3.173-29.882a134.868,134.868,0,0,1,0-18.643c0-5.421-1.851-9.256-8-7.867-7.4,1.719-11.107,0-10.578-8.4.529-6.611-1.587-15.073,9.917-14.148a31.14,31.14,0,0,0,4.958,0l2.446.529,4.76,4.1c-2.578,18.445-2.512,18.577,13.222,17.321H120.57c4.892,0,7.008,3.372,7.735,7.867v5.024c-5.487,15.007-19.371,3.173-29.353,10.049a139.7,139.7,0,0,0,16,0c8-.926,12.627,1.851,13.222,10.115v12.627a128.992,128.992,0,0,1-.661,16C126.322,209.706,131.148,212.482,140.536,210.3ZM87.647,190.467c3.9,2.711,1.058,4.76-.661,7.074s-7.206,4.562-4.892,8.925c1.719,3.24,6.082,1.521,9.256,1.587,32.461.661,32.461.595,31.535-32.2,0-3.438,1.785-8.661-3.107-9.652a153.234,153.234,0,0,0-20.693-1.785c0,10.049-12.5,10.446-14.082,19.172l-2.909-2.248c-2.446-1.785-3.9-6.942-7.537-4.3s.4,5.619,1.983,8.2,1.851,3.5,0,5.487-6.611,5.223-2.512,8,5.421-3.239,8.264-5.024a48.337,48.337,0,0,0,5.752-3.041Zm7.14-27.767c-.926-3.7-3.372-2.711-5.686-1.587s-4.826,4.958-8.528,1.124c-6.611-6.611-11.173-1.851-15.47,3.041-1.454,1.653-4.694,3.438-2.512,6.016a4.892,4.892,0,0,0,6.611.4c4.363-3.57,8.2-5.884,12.231.595,1.917,3.173,4.363.992,6.148-.727s6.347-4.429,7.074-8.661ZM144.3,223.523c-2.512-3.7-2.38-10.181-9.123-9.983-5.487,0-4.562,4.826-4.694,8.4,0,5.95,3.9,6.611,8.33,6.214,2.909,0,6.214.33,5.553-4.43ZM46.063,120.389c-2.909.661-6.611,2.049-6.611,5.752s3.438,3.967,6.611,4.033,6.611,0,6.611-3.967-2.711-4.958-6.545-5.62Zm25.453,83.432a5.619,5.619,0,0,0-5.884-2.711,2.909,2.909,0,0,0-2.38,3.636c.6,3.173,3.173,3.306,5.752,2.975s2.777-1.256,2.578-3.7Z" transform="translate(106.215 658.055)" fill="#ec9f42"/>
      <path id="Path_796" data-name="Path 796" d="M95.167,92.094a5.355,5.355,0,0,0,4.033-3.9A27.238,27.238,0,0,0,111.166,76.36a22.874,22.874,0,0,0,8.462-8.859h.793v-.793A35.9,35.9,0,0,0,135.3,52.3c10.115-11.173,24.66-7.735,37.022-11.305h20.957c.926,6.148-5.95,8-7.074,13.222l-3.438,3.438a7.6,7.6,0,0,0-5.487,6.148h0a7.867,7.867,0,0,0-6.215,5.487c-1.124,1.124-2.248,2.248-3.438,3.306a13.619,13.619,0,0,0-8.2,8.727,6.148,6.148,0,0,0-4.826,4.826,13.222,13.222,0,0,0-8.727,8.264l-5.95,5.752-1.851,1.719a66.972,66.972,0,0,0-15.668,15.47c-7.14,2.314-11.834,9.652-19.833,9.917l-20.23.529c-15.867-1.19-15.867-1.19-8.2-15.007v-1.521a6.082,6.082,0,0,0,6.611-4.694,2.182,2.182,0,0,0,1.388-1.653A35.1,35.1,0,0,0,95.167,92.094Z" transform="translate(297.954 239.637)" fill="#fbcb2c"/>
      <path id="Path_797" data-name="Path 797" d="M94.794,143.327a292.4,292.4,0,0,1,0,45.022c-12.363,8.4-26.444,4.165-39.667,5.025-2.975,0-7.471,1.719-8.4-2.777-.661-2.909,2.578-4.958,5.024-6.611,5.619-3.5,9.189-6.611,0-10.115l-2.446-2.578c4.429-2.248.6-5.62,1.124-8.4,2.975-1.322,3.372-6.611,8.727-4.628,10.776,4.429,12.1,3.5,14.544-8.33-4.1-1.719-6.942,3.768-11.569,1.454C51.094,145.905,47.656,152.979,46,162.169l.4,9.454v.463l-7.14-2.843c-2.644,0-5.223-3.239-7.933,0-2.446-.661-5.421-1.256-5.553-4.165a94.471,94.471,0,0,1,1.388-31.072,9.784,9.784,0,0,1,10.578-8.4h36.3c6.611,0,14.809-2.711,12.032,9.851C85.472,139.294,90.629,142.8,94.794,143.327Z" transform="translate(50.741 713.063)" fill="#f19a27"/>
      <path id="Path_798" data-name="Path 798" d="M176.785,83.226h25.188c.992,2.644-1.719,6.215,1.785,8.4,4.1-1.851,2.182-5.619,2.975-8.462h2.711l12.231.992A2.247,2.247,0,0,0,222.137,86a3.175,3.175,0,0,0,0,2.446q0,2.578,0,5.157v48c-1.256,5.619-5.686,4.76-9.718,4.826l-23.271.529H166.6l-7.4-.793a2.182,2.182,0,0,0-.859-1.851V86.267C164.224,82.1,170.9,84.879,176.785,83.226Zm15.734,13.222c-.595,4.628,0,8.991-1.587,10.908-7.074,7.4-.463,11.9,2.843,16.991,1.256,1.983,3.5,4.1,6.611,2.049s1.454-4.3-.331-6.611-5.752-5.223-1.455-9.256c7.6-7.008,1.455-9.917-6.082-14.016ZM175.926,141.14c5.355-2.711,11.107-7.8,11.635-12.759s-7.867-12.693-11.173-11.041c-6.611,3.438,5.223,13.619-3.636,19.3C170.9,137.57,172.62,140.412,175.926,141.14Z" transform="translate(798.445 476.258)" fill="#b8cf44"/>
      <path id="Path_800" data-name="Path 800" d="M232.725,12.87a72.722,72.722,0,0,0,9.983.331c7.933-.926,9.983,2.909,9.917,10.181s-.661,11.834-9.256,10.446-10.842,3.636-11.239,11.5c-.6,12.826-3.5,14.148-16.33,11.371-7.669-1.587-10.313,4.165-11.9,11.305,7.471-9.454,16.594,4.5,23.932-2.777,4.033,7.735,2.975,12.3-7.008,11.107-3.239-.661-4.694-6.148-8.793-3.768-3.306,4.628,13.222,10.908-1.851,13.751-1.653-3.239-2.248-7.471-7.272-7.074a26.974,26.974,0,0,0-5.487-15.867c1.983-4.628,4.5-9.784-4.5-5.818-2.182.926-3.57,2.512-6.611,1.256-10.38-4.231-13.883-1.851-15.6,9.983a9.652,9.652,0,0,1-.86,12.164l-10.313.463V55.842c3.5-7.338-2.843-18.908,9.718-22.346h51.435c5.157,0,10.776.793,9.123-7.471C231.469,21.729,229.089,16.638,232.725,12.87Z" transform="translate(805.179 81.852)" fill="#ec9f42"/>
      <path id="Path_801" data-name="Path 801" d="M172.947,114c5.024,2.314,5.355,6.611,5.289,11.5V165.17A25.982,25.982,0,0,0,163.1,179.582l-2.578,2.182c-7.6,2.446-11.305,9.454-16.594,14.544-2.248,2.116-4.429,4.1-7.471,3.173s-2.711-4.562-2.909-7.338l-.6-7.4V155.848a448.675,448.675,0,0,1,40-41.848Z" transform="translate(655.979 649.305)" fill="#b8cf44"/>
      <path id="Path_802" data-name="Path 802" d="M116.529,147.578c-4.5-.793-9.322-4.033-8.528-7.735,2.777-12.561-5.487-9.851-12.032-9.851h-36.3A9.785,9.785,0,0,0,48.9,138.058a94.471,94.471,0,0,0-1.388,31.072c0,2.909,3.107,3.5,5.553,4.165-1.454,3.57-2.909,7.14-5.553,13.222,8.2-3.57,13.222-5.752,13.222-13.222l7.14,3.173c-.6,5.024-7.8,6.611-6.148,13.222,3.306-4.429,11.107-3.9,11.371-11.371,9.256,3.372,5.686,6.611,0,10.115-2.446,1.454-5.686,3.5-5.024,6.611.926,4.5,5.421,2.909,8.4,2.777,13.222-.86,27.238,3.372,39.667-5.024,2.446,7.735-2.512,8.33-8.132,8.33-16.726,0-33.452.4-50.178,0-9.784,0-15.6,2.182-14.148,13.222,1.256,9.718-5.223,9.454-11.9,9.52s-11.371-1.454-10.446-8.793c.661-5.686-2.777-15.139,8.661-13.949s13.222-4.562,13.222-14.148c-.463-16.726.463-33.518,0-50.178-.529-10.908,4.826-13.222,13.751-11.834a200.907,200.907,0,0,0,48.79.661c11.371-.925,13.222,3.041,12.231,12.363C117.388,140.967,116.992,144.273,116.529,147.578Z" transform="translate(29.005 708.811)" fill="#ec9f42"/>
      <path id="Path_803" data-name="Path 803" d="M85.672,152.98c11.7,1.98,14.141,2.154,14.006,2.018,0-.272,39.652-38.328,40.659-40.115-.272-.136,27.061,28.012,26.924,28.012-14.941,18.908-33.893,33.421-50.884,50.676a5.157,5.157,0,0,1-5.752,1.058c6.214-11.5,0-22.874-.926-34.179-.4-4.231-5.752-7.735-11.7-7.471-4.114.936-8.59,1.961-12.326,0Z" transform="translate(392.108 683.245)" fill="#87bd4a"/>
      <path id="Path_804" data-name="Path 804" d="M56.946,86.65H92.051c1.653.661,3.306,1.917,5.024,0h0v43.369h0c-13.751,6.611-28.362,2.049-42.51,2.909-4.628-14.016-.463-28.56-2.446-42.708C52.649,87.84,55.029,87.576,56.946,86.65Z" transform="translate(202.432 495.841)" fill="#db612c"/>
      <path id="Path_805" data-name="Path 805" d="M105.605,125.071a17.718,17.718,0,0,0,12.164,1.587c5.95,0,11.305,3.239,11.7,7.47.992,11.305,7.14,22.676.926,34.18h-7.338a6.942,6.942,0,0,0-9.983,0l-3.768.859c-25.585,0-25.585,0-26.444-25.519,0-4.958,0-9.917-.463-14.875L84.714,126,90,124.74Z" transform="translate(372.337 709.568)" fill="#b8cf44"/>
      <path id="Path_808" data-name="Path 808" d="M106.143,98.667c.029.024,42.019-39.435,41.952-39.706l23.864,22.572c.272.272-38.9,43.69-38.89,43.786C133.2,125.359,106.308,98.691,106.143,98.667Z" transform="translate(505.307 261.465)" fill="#db612c"/>
      <path id="Path_809" data-name="Path 809" d="M93.593,161.107c.4-20.891.4-20.891,20.891-21.023s21.354,0,21.288,21.288c0,26.973,1.785,21.751-21.751,21.751C92.4,183.123,93.329,187.354,93.593,161.107Z" transform="translate(434.659 795.573)" fill="#b8cf44"/>
      <path id="Path_811" data-name="Path 811" d="M224.292,34.173c0,9.123-.4,18.247-.463,27.436,0,16.858,0,16.858-16.726,17.916h-9.983l-22.676.4H169.42l-17.453-.661L148,75.294l.859-.4V70.071a69.13,69.13,0,0,1,.925-8.2c.331-2.711.727-3.636,1.058-5.421,10.578,1.124,12.363-6.611,13.685-14.082,4.562-2.975-2.314-11.636,6.281-12.561-.859,5.884-3.306,13.751,6.942,5.355,1.851-1.587,3.834-.6,5.289,1.19-4.429,2.777-2.909,7.6-3.967,11.5-11.107,0-15.6,7.8-19.238,16.462-2.711,0-5.223,1.19-4.76,4.429s3.438,5.421,7.14,5.619c16.924.992,34.047-1.983,50.84,1.983a2.909,2.909,0,0,0,3.7-2.446,3.173,3.173,0,0,0-2.182-3.9c-12.759-4.429-15.8-17.784-24.263-26.445,4.363-.463,4.826-3.173,3.835-6.611,7.537,4.1,8.066,15.338,18.643,16.991,4.363.727,7.074,2.843,7.074-3.306V16.852a6.611,6.611,0,0,0-8.2-7.669C191.3,10.5,170.346,4.753,150.578,13.81a6.611,6.611,0,0,1-1.521,0c.661-3.173,1.256-6.611,1.917-9.52h.992c19.04,0,38.146.926,57.12,0,10.908-.4,16.66,2.38,15.272,14.082Z" transform="translate(740.426 33.51)" fill="#ec9f42"/>
      <path id="Path_812" data-name="Path 812" d="M149.681,10.138c19.833-9.057,40.725-3.306,61.087-4.628a6.611,6.611,0,0,1,7.867,7.669V46.962c0,6.148-2.711,4.033-7.074,3.306-10.578-1.653-11.107-12.892-18.643-16.991l-2.049-2.314c0-2.446,0-4.562-3.041-5.091h0c2.843-8.066,7.867-17.057-7.933-16.726.331,4.1.661,8,.992,11.966h-4.628c-1.256-2.38-3.636-4.1-5.619-2.182s.331,3.834,2.38,4.892L169.58,26c-8.594.926-1.719,9.586-6.281,12.561h-4.628c-1.785-4.033-6.611-2.777-9.189-5.421l-1.322-5.157C148.689,22.038,149.152,16.088,149.681,10.138Z" transform="translate(741.324 37.182)" fill="#f19a27"/>
      <path id="Path_813" data-name="Path 813" d="M147.746,130.817A272.111,272.111,0,0,1,177.76,101.86c3.636,8.793.463,17.321,2.843,25.188v4.76c-2.512,8.859,4.033,19.238-4.628,27.106a1.521,1.521,0,0,0-1.322.793,19.37,19.37,0,0,0-10.181,9.784h0l-14.743,10.446a197.669,197.669,0,0,1-1.983-49.121Z" transform="translate(735.061 581.186)" fill="#b8cf44"/>
      <path id="Path_814" data-name="Path 814" d="M184.06,18.8c0,11.239,0,22.412.595,33.585,0,6.082-1.983,9.057-8.594,8.859-40.2-1.256-31.138,7.074-32.394-30.94a104.562,104.562,0,0,1,.4-11.173L163.9,18.2h10.115Z" transform="translate(715.738 111.759)" fill="#f19a27"/>
      <path id="Path_816" data-name="Path 816" d="M173.261,40.773a27.767,27.767,0,0,0-.595,7.338c1.917,11.834-3.636,16.329-14.809,15.47-7.4-3.041-17.057,4.231-23.007-5.157V28.344a5.156,5.156,0,0,0,.4-2.446L140.4,23.65h7.14a38.278,38.278,0,0,0,20.428,0,1.19,1.19,0,0,0,1.521,0l3.239,2.512h0c0,3.306.4,6.611.529,9.917Z" transform="translate(666.64 142.34)" fill="#ec9f42"/>
      <path id="Path_819" data-name="Path 819" d="M88.641,158.935c-.595-7.338-2.909-16.065,8.991-14.082,7.4,1.256,20.759-7.338,20.362,8.991,0,7.206,7.338,20.428-8.528,21.023C87.054,175.859,87.649,176.983,88.641,158.935Z" transform="translate(404.11 815.926)" fill="#b8cf44"/>
      <path id="Path_820" data-name="Path 820" d="M68.838,76.83C78.028,74.979,82.59,78.615,81.4,89.59c-.926,8.066,3.173,18.71-11.834,17.189-8.661-.859-18.643,2.777-17.453-13.222C53.3,77.095,52.245,77.029,68.838,76.83Z" transform="translate(201.844 438.161)" fill="#ec9f42"/>
      <path id="Path_822" data-name="Path 822" d="M117.3,154.881c-4.1-17.519,9.256-12.826,17.453-14.214s10.842,4.363,9.586,10.644,4.429,19.371-12.363,18.048C121,168.5,113.464,168.1,117.3,154.881Z" transform="translate(562.481 797.766)" fill="#b8cf44"/>
      <path id="Path_828" data-name="Path 828" d="M166.205,72.332a5.95,5.95,0,0,0-.595-2.182c0-6.611,0-13.222,0-20.23l2.777-2.38h22.544l2.314,2.38a74.976,74.976,0,0,0,.463,10.115v4.892c0,5.95-2.843,8.925-9.322,8.2S172.353,72.6,166.205,72.332Z" transform="translate(839.238 276.39)" fill="#b8cf44"/>
      <path id="Path_829" data-name="Path 829" d="M195.551,52.863,198,55.375V75.208a2.38,2.38,0,0,0,0,1.785c-26.445,3.7-26.445,3.7-26.907-21.751l4.694-2.843Z" transform="translate(869.987 303.66)" fill="#b8cf44"/>
      <path id="Path_831" data-name="Path 831" d="M86.194,128.625c-5.95,4.165-12.693,2.314-19.106,2.314-8.4,0-2.843-9.256-7.338-12.032v-5.487a5.886,5.886,0,0,0,.793-.6,10.237,10.237,0,0,0-.793-1.454v-2.909l2.38-3.768L77.2,104.23c4.3,1.587,7.933,3.834,8.132,9.123Z" transform="translate(245.245 594.484)" fill="#db612c"/>
      <path id="Path_832" data-name="Path 832" d="M57.353,127.35,55.37,107.517l1.454-2.711,1.785-2.248,5.223-2.578H73.881l5.024,1.388a3.305,3.305,0,0,0,2.38,3.57l.331,7.4V117.9l.4,4.694C75.071,130.259,65.749,126.557,57.353,127.35Z" transform="translate(220.668 570.637)" fill="#fbcb2c"/>
      <path id="Path_834" data-name="Path 834" d="M81.883,117.537c7.8,7.14,13.222-2.314,19.833-2.777-10.71,14.809-25.453,25.585-38.278,40.129a15.073,15.073,0,0,1,2.512-19.833C71.966,129.569,76.859,123.421,81.883,117.537Z" transform="translate(251.209 653.569)" fill="#ec9f42"/>
      <path id="Path_839" data-name="Path 839" d="M89.676,164.036h0c0,4.1.727,8.264.793,12.429s.661,9.322-5.884,8.4c-4.958-.727-11.966,4.1-14.478-2.578-1.983-5.421-3.834-13.751,1.388-17.519S83.461,163.11,89.676,164.036Z" transform="translate(292.074 922.024)" fill="#0e9549"/>
      <path id="Path_841" data-name="Path 841" d="M82.072,167.348c-8.462,1.983-10.247-2.578-10.512-10.975,0-9.52,4.1-10.446,11.966-10.776,10.379-.4,10.908,4.892,11.371,13.222C95.492,169.2,89.079,167.547,82.072,167.348Z" transform="translate(311.512 826.487)" fill="#b8cf44"/>
      <path id="Path_842" data-name="Path 842" d="M59.38,118.055c2.049,8.925-3.306,9.52-10.578,9.983-10.181.6-11.107-4.3-11.5-12.759-.529-10.446,5.223-9.718,12.429-10.181C60.239,104.3,59.975,110.65,59.38,118.055Z" transform="translate(119.078 598.972)" fill="#ec9f42"/>
      <path id="Path_843" data-name="Path 843" d="M48.836,154.326c-7.867,1.917-11.239-1.058-10.71-8.859.4-5.818-2.049-12.5,8.528-12.231,8.4,0,14.148.331,14.611,10.975S55.447,154.458,48.836,154.326Z" transform="translate(123.606 757.2)" fill="#ec9f42"/>
      <path id="Path_844" data-name="Path 844" d="M147.15,147.6c0,2.446.595,4.892.661,7.338,0,7.338,2.116,14.148-10.38,14.148s-10.512-6.611-10.379-14.148a39.451,39.451,0,0,1,.463-7.4Z" transform="translate(621.813 837.446)" fill="#0e9549"/>
      <path id="Path_848" data-name="Path 848" d="M132.4,137.181c8.264-1.653,10.247,2.182,10.313,10.115s-2.446,11.305-11.107,11.437-10.181-4.562-10.578-12.1C120.565,137.445,125.06,136.123,132.4,137.181Z" transform="translate(588.898 777.254)" fill="#0e9549"/>
      <path id="Path_849" data-name="Path 849" d="M191.341,27.5c.793,3.372,1.521,6.611,2.314,10.049.661,17.586-12.429,10.71-21.023,11.768a30.5,30.5,0,0,1-1.256-4.826c-1.256-16-1.058-16.131,15.007-17.586Z" transform="translate(868.975 160.632)" fill="#ec9f42"/>
      <path id="Path_852" data-name="Path 852" d="M173,84.165c3.041-5.421-3.967-14.941,6.611-17.255H192.3c3.7,6.214,1.653,13.222,1.521,19.437C186.949,85.95,178.818,95.4,173,84.165Z" transform="translate(880.705 385.077)" fill="#0e9549"/>
      <path id="Path_864" data-name="Path 864" d="M163.092,19.016c-2.314-6.611-7.471-13.817,3.636-17.255,2.909-.926,7.14-1.322,8.925,2.049a12.693,12.693,0,0,1-2.644,15.668Z" transform="translate(806.982 15.875)" fill="#ec9f42"/>
      <path id="Path_866" data-name="Path 866" d="M174.09,12.6a14.677,14.677,0,0,1,15.272-.859c3.57,2.116,2.711,7.14,1.653,10.313-2.909,8.594-10.38,3.306-15.867,4.3C174.817,21.786,174.487,17.158,174.09,12.6Z" transform="translate(886.821 65.73)" fill="#ec9f42"/>
      <path id="Path_868" data-name="Path 868" d="M26.728,156.851a7.074,7.074,0,0,1-6.942-8.2c0-5.752,3.57-8,8.859-7.735s6.148,4.231,6.214,8.727C34.926,155.264,31.224,156.322,26.728,156.851Z" transform="translate(20.499 800.227)" fill="#f5a842"/>
      <path id="Path_871" data-name="Path 871" d="M28.631,150.316c.4,4.892-.926,8-6.611,8.066s-8.264-2.446-8.4-8.132,2.909-7.272,7.735-7.471S28.961,145.093,28.631,150.316Z" transform="translate(-13.6 810.728)" fill="#ec9f42"/>
      <path id="Path_873" data-name="Path 873" d="M142.518,15.66c6.611.529,13.949-1.124,13.222,9.718s-9.388,6.148-15.007,7.074h0c0-4.892,0-9.851-.463-14.743Z" transform="translate(697.052 97.507)" fill="#ec9f42"/>
      <path id="Path_875" data-name="Path 875" d="M187.651,40.709c-4.033-1.851-10.842,2.314-12.164-5.157-.661-3.438-1.785-7.735,1.454-10.446a10.842,10.842,0,0,1,10.71-.793c3.967,1.388,2.975,5.421,2.909,8.594a69.531,69.531,0,0,1-.926,7.338,2.182,2.182,0,0,0-1.983.463Z" transform="translate(890.515 140.156)" fill="#ec9f42"/>
      <path id="Path_877" data-name="Path 877" d="M176.1,52.86c.529,25.453.529,25.453,26.907,21.751,0,6.611-4.694,5.289-8.661,5.752a102.738,102.738,0,0,1-23.4-2.446l-.793-24.593Z" transform="translate(864.713 306.241)" fill="#e9f8dd"/>
      <path id="Path_881" data-name="Path 881" d="M85.972,163.923c4.363,0,8.859-1.851,13.222,1.124l-.4,15.206H86.567C84.12,174.963,81.74,169.542,85.972,163.923Z" transform="translate(379.343 926.236)" fill="#0e9549"/>
      <path id="Path_883" data-name="Path 883" d="M138.585,157.062c.529,5.355-.793,8.4-6.611,8.132s-7.537-1.719-7.6-7.272,3.306-6.611,7.933-6.611S139.775,152.1,138.585,157.062Z" transform="translate(607.835 858.656)" fill="#377252"/>
      <path id="Path_885" data-name="Path 885" d="M46.06,131.25a7.473,7.473,0,0,0,0-1.719L78.719,129c11.305-1.851,4.363-9.983,5.289-15.338v-5.091c1.851-7.008-1.322-14.544,2.116-21.354,1.983,14.148-2.182,28.692,2.446,42.708l.4,6.611a4.3,4.3,0,0,0-1.322,0c-2.446-5.024-6.611-4.958-11.636-4.892C65.893,131.382,55.977,131.25,46.06,131.25Z" transform="translate(168.428 499.039)" fill="#f5a842"/>
      <path id="Path_888" data-name="Path 888" d="M190.222,56.907c.925,6.148-2.314,6.611-6.611,6.611S177,61.865,177,56.907s.859-7.14,6.214-6.611S191.611,51.75,190.222,56.907Z" transform="translate(903.149 291.418)" fill="#377252"/>
      <path id="Path_892" data-name="Path 892" d="M185.989,41.865c4.826-.6,6.611,1.454,6.611,6.611s-2.182,6.611-6.611,6.611-6.082-2.512-6.611-6.611S181.427,41.2,185.989,41.865Z" transform="translate(916.109 243.985)" fill="#377252"/>
      <path id="Path_893" data-name="Path 893" d="M179.222,64.26c10.38,0,13.222,4.363,8.4,13.751l-5.818.529c-6.611-1.983-4.363-7.537-5.091-11.9Z" transform="translate(901.522 370.208)" fill="#377252"/>
      <path id="Path_894" data-name="Path 894" d="M55.67,108.384c8.4-.727,17.718,2.909,24.659-5.024l4.5,6.214-2.38,3.768a65.714,65.714,0,0,0-19.371-1.322C60.232,111.954,56.133,113.673,55.67,108.384Z" transform="translate(222.351 589.603)" fill="#f5a842"/>
      <path id="Path_901" data-name="Path 901" d="M188.6,58.964l-29.618.926c-.529-5.024,1.917-9.123,6.611-7.933C173.393,53.807,182.384,52.088,188.6,58.964Z" transform="translate(801.64 300.005)" fill="#e9f8dd"/>
      <path id="Path_903" data-name="Path 903" d="M181.242,64.62c.727,4.363-1.256,9.917,5.091,11.9-4.76,6.611-3.306,16.2-8.594,22.874,0-6.611,2.182-13.222-1.521-19.437a16.461,16.461,0,0,1,5.024-15.338Z" transform="translate(896.99 372.228)" fill="#e9f8dd"/>
      <path id="Path_905" data-name="Path 905" d="M188.614,53.993H166.07c.463-7.4,5.686-7.6,11.305-7.6S188.151,46.654,188.614,53.993Z" transform="translate(841.819 269.937)" fill="#e9f8dd"/>
      <path id="Path_907" data-name="Path 907" d="M179.272,84.918c-.463,4.165-3.438,5.157-6.942,5.223s-8.33.264-8.33-4.628,3.24-5.157,6.611-5.289S177.883,80.224,179.272,84.918Z" transform="translate(830.204 459.625)" fill="#fcfaf3"/>
      <path id="Path_908" data-name="Path 908" d="M144.09,126.91c.4,9.917.793,19.833,1.256,29.816C138.007,151.5,137.346,135.5,144.09,126.91Z" transform="translate(692.241 721.745)" fill="#e9f8dd"/>
      <path id="Path_910" data-name="Path 910" d="M73.9,140.994c-.859-8.264-5.487-11.041-13.222-10.115a139.714,139.714,0,0,1-16,0c9.983-6.611,23.866,4.958,29.353-10.049a20.759,20.759,0,0,1-.132,20.164Z" transform="translate(160.685 687.629)" fill="#e9f8dd"/>
      <path id="Path_913" data-name="Path 913" d="M67.36,131.243A31.8,31.8,0,0,1,87.193,111.41,56.989,56.989,0,0,1,67.36,131.243Z" transform="translate(287.945 634.772)" fill="#ec9f42"/>
      <path id="Path_918" data-name="Path 918" d="M76.31,150.334a343.127,343.127,0,0,1,53.418,0,206.4,206.4,0,0,1-53.418,0Z" transform="translate(338.165 847.336)" fill="#7ba766"/>
      <path id="Path_920" data-name="Path 920" d="M168,132.568V84.77A104.917,104.917,0,0,1,168,132.568Z" transform="translate(852.649 485.292)" fill="#fcfaf3"/>
      <path id="Path_925" data-name="Path 925" d="M88.745,166.638c-4.033,5.619-1.653,11.041,0,16.528-7.471,1.256-5.223-4.5-5.421-7.933a110.53,110.53,0,0,1,.595-12.363h0C84.315,165.845,86.629,165.977,88.745,166.638Z" transform="translate(376.57 923.521)" fill="#377252"/>
      <path id="Path_926" data-name="Path 926" d="M70.68,124.174a20.164,20.164,0,0,1,15.338-15.4C81.39,114.323,78.679,121.926,70.68,124.174Z" transform="translate(306.574 619.959)" fill="#ec9f42"/>
      <path id="Path_927" data-name="Path 927" d="M52.556,133.591c-15.668,1.256-15.734,1.124-13.222-17.321C44.425,121.559,40.921,133.327,52.556,133.591Z" transform="translate(123.852 662.042)" fill="#e9f8dd"/>
      <path id="Path_932" data-name="Path 932" d="M149.008,152.478H129.174l-2.644-5.818,22.544.4A11.56,11.56,0,0,1,149.008,152.478Z" transform="translate(619.956 832.564)" fill="#e9f8dd"/>
      <path id="Path_936" data-name="Path 936" d="M55.635,132.827c-.727-4.5-2.843-7.537-7.735-7.867.331-5.884,6.611-4.165,9.057-7.14l3.57,9.917a4.562,4.562,0,0,1-4.892,5.091Z" transform="translate(178.753 670.739)" fill="#e9f8dd"/>
      <path id="Path_938" data-name="Path 938" d="M62.271,152.9c-9.388,2.182-14.214-.595-13.222-11.107.595-5.289.463-10.644.661-16a11.9,11.9,0,0,1,2.182,11.636A12.826,12.826,0,0,0,62.271,152.9Z" transform="translate(184.48 715.46)" fill="#e9f8dd"/>
      <path id="Path_939" data-name="Path 939" d="M20.1,147.609a1.983,1.983,0,0,1-1.851-.727V136.37H28.629a32.558,32.558,0,0,0,.727,5.091l-.4,4.76-.6.859Z" transform="translate(12.383 774.826)" fill="#ec9f42"/>
      <path id="Path_943" data-name="Path 943" d="M175.17,72.713V52.88C182.31,59.293,183.963,65.97,175.17,72.713Z" transform="translate(892.881 306.353)" fill="#e9f8dd"/>
      <path id="Path_944" data-name="Path 944" d="M85.87,178.816l.4-15.206a9.19,9.19,0,0,1-.4,15.206Z" transform="translate(391.807 927.673)" fill="#377252"/>
      <path id="Path_954" data-name="Path 954" d="M169.582,47.9V68.13C159.533,61.254,168.854,54.643,169.582,47.9Z" transform="translate(835.531 278.41)" fill="#e9f8dd"/>
      <path id="Path_956" data-name="Path 956" d="M191.623,56.739H171.79C178.269,55.945,185.145,45.83,191.623,56.739Z" transform="translate(873.915 299.784)" fill="#e9f8dd"/>
      <path id="Path_959" data-name="Path 959" d="M179.4,87.589H161.88C167.83,78.268,173.648,83.623,179.4,87.589Z" transform="translate(818.309 472.093)" fill="#fcfaf3"/>
      <path id="Path_978" data-name="Path 978" d="M163.353,53.23V63.279C156.279,59.709,156.279,56.4,163.353,53.23Z" transform="translate(796.804 308.317)" fill="#e9f8dd"/>
      <path id="Path_979" data-name="Path 979" d="M21.042,136.37v10.512C16.348,143.444,16.877,139.94,21.042,136.37Z" transform="translate(9.393 774.826)" fill="#cb8c7d"/>
      <path id="Path_980" data-name="Path 980" d="M178.3,88.335l-12.231-.992C170.367,85.294,175.127,76.9,178.3,88.335Z" transform="translate(841.819 472.273)" fill="#fcfaf3"/>
      <path id="Path_981" data-name="Path 981" d="M64.87,110.25a6.148,6.148,0,0,1,0,9.454,9.983,9.983,0,0,1,0-9.454Z" transform="translate(267.296 628.263)" fill="#ec9f42"/>
      <path id="Path_982" data-name="Path 982" d="M169.765,83.23c-.793,2.843,1.124,6.611-2.975,8.462-3.5-2.182-.793-5.752-1.785-8.4Z" transform="translate(835.414 476.651)" fill="#fcfaf3"/>
      <path id="Path_987" data-name="Path 987" d="M28.609,139.179H18.23C21.734,135.808,25.172,133.891,28.609,139.179Z" transform="translate(12.271 772.148)" fill="#cb8c7d"/>
      <path id="Path_991" data-name="Path 991" d="M63.9,104.574a3.57,3.57,0,0,1,.463,2.182H50.21C54.309,102.921,59.333,105.3,63.9,104.574Z" transform="translate(191.715 595.991)" fill="#f5a842"/>
      <path id="Path_993" data-name="Path 993" d="M170.293,58.015A74.971,74.971,0,0,0,169.83,47.9C171.88,51.206,178.689,54.247,170.293,58.015Z" transform="translate(862.917 278.41)" fill="#e9f8dd"/>
      <path id="Path_994" data-name="Path 994" d="M141.1,141.419a7.272,7.272,0,0,1-1.454-7.669C144.871,135.4,145.2,137.981,141.1,141.419Z" transform="translate(690.666 760.125)" fill="#e9f8dd"/>
      <path id="Path_998" data-name="Path 998" d="M18.53,138.407l8.132-.4C24.282,143.629,21.637,139.6,18.53,138.407Z" transform="translate(13.954 784.028)" fill="#cb8c7d"/>
      <path id="Path_1002" data-name="Path 1002" d="M128.6,25.782a2.583,2.583,0,0,1,.926-1.983c.463-.2,1.388.529,2.049.793-.331.727-.463,1.785-.926,1.983S129.261,26.113,128.6,25.782Z" transform="translate(631.571 142.985)" fill="#fcfaf3"/>
      <path id="Path_1008" data-name="Path 1008" d="M152.336,14.392v3.834c-1.917,0-4.76.727-4.958-1.454C146.915,13.136,150.155,14.326,152.336,14.392Z" transform="translate(736.685 89.057)" fill="#fcfaf3"/>
      <path id="Path_1009" data-name="Path 1009" d="M124.3,25.972,122.52,30.6c-1.587-.331-3.306-.926-2.975-2.777S122.388,25.839,124.3,25.972Z" transform="translate(580.531 155.158)" fill="#e9f8dd"/>
      <path id="Path_1010" data-name="Path 1010" d="M19.85,141.92l.4-4.76C22.627,139.011,23.486,140.664,19.85,141.92Z" transform="translate(21.361 779.259)" fill="#cb8c7d"/>
      <path id="Path_1013" data-name="Path 1013" d="M93.632,149.35v1.058a8.263,8.263,0,0,1-8.132,0Z" transform="translate(389.731 847.658)" fill="#7ba766"/>
      <path id="Path_1014" data-name="Path 1014" d="M53.311,100.78l1.454,2.049c-.463,1.587-.859,3.173-1.256,4.694a4.958,4.958,0,0,1-.2-6.743Z" transform="translate(202.232 575.126)" fill="#f5a842"/>
      <path id="Path_1015" data-name="Path 1015" d="M170.25,65.084V60.06C172.762,61.779,172.7,63.5,170.25,65.084Z" transform="translate(865.274 346.641)" fill="#e9f8dd"/>
      <path id="Path_1016" data-name="Path 1016" d="M107.55,54.81l2.049,2.116Z" transform="translate(513.456 317.183)" fill="#e9f8dd"/>
      <path id="Path_1017" data-name="Path 1017" d="M39.666,116.1l-2.446-.529Z" transform="translate(118.826 658.114)" fill="#e9f8dd"/>
      <path id="Path_1018" data-name="Path 1018" d="M73.445,133.54l.066.066H72.85Z" transform="translate(408.662 754.054)" fill="#b8cf44"/>
      <path id="Path_1019" data-name="Path 1019" d="M64.315,109.05a2.909,2.909,0,0,1,0,2.446,17.637,17.637,0,0,1-.6-1.719A4.3,4.3,0,0,0,64.315,109.05Z" transform="translate(267.521 621.53)" fill="#ec9f42"/>
      <path id="Path_1020" data-name="Path 1020" d="M118.56,96.52l2.049,1.917Z" transform="translate(575.235 551.222)" fill="#0e9549"/>
      <path id="Path_1021" data-name="Path 1021" d="M79.55,51.659,81.4,49.94Z" transform="translate(356.345 289.856)" fill="#e9f8dd"/>
      <path id="Path_1022" data-name="Path 1022" d="M51,119.581a2.38,2.38,0,0,1,2.38,0C52.388,121.366,51.6,121.564,51,119.581Z" transform="translate(196.147 678.829)" fill="#e9f8dd"/>
      <path id="Path_1024" data-name="Path 1024" d="M63.841,45.63l.132.727-.793-.132Z" transform="translate(354.402 260.78)" fill="#e9f8dd"/>
      <path id="Path_1025" data-name="Path 1025" d="M61.283,62.378h0l-.463-.926C62.01,60.659,62.01,61.122,61.283,62.378Z" transform="translate(251.249 352.256)" fill="#e9f8dd"/>
      <path id="Path_1026" data-name="Path 1026" d="M60.077,105.31a10.244,10.244,0,0,1,.793,1.455,5.889,5.889,0,0,1-.793.595,1.521,1.521,0,0,1,0-2.049Z" transform="translate(244.852 600.544)" fill="#f5a842"/>
      <path id="Path_1027" data-name="Path 1027" d="M89.32,62,91.9,64.182Z" transform="translate(411.166 357.526)" fill="#fcfaf3"/>
      <path id="Path_1028" data-name="Path 1028" d="M151.02,63.87l-2.38,2.644Z" transform="translate(744.018 368.019)" fill="#e9f8dd"/>
      <path id="Path_1029" data-name="Path 1029" d="M107.17,54.43l2.116,2.116Z" transform="translate(511.324 315.05)" fill="#e9f8dd"/>
      <path id="Path_1030" data-name="Path 1030" d="M124.28,32.77h2.446C125.933,34.291,125.139,34.291,124.28,32.77Z" transform="translate(607.331 193.513)" fill="#e9f8dd"/>
      <path id="Path_1031" data-name="Path 1031" d="M168.208,86.076a3.174,3.174,0,0,1,0-2.446c0,.595.727,1.124.992,1.719S168.6,86.076,168.208,86.076Z" transform="translate(852.441 478.895)" fill="#fcfaf3"/>
      <path id="Path_1033" data-name="Path 1033" d="M143.339,26.132,140.1,23.62Z" transform="translate(696.099 142.172)" fill="#fcfaf3"/>
      <path id="Path_1034" data-name="Path 1034" d="M171.38,78.507a3.5,3.5,0,0,1,2.446,0C173.165,79.763,172.372,79.962,171.38,78.507Z" transform="translate(871.615 448.913)" fill="#e9f8dd"/>
      <path id="Path_1035" data-name="Path 1035" d="M106.4,53.73l2.049,1.719Z" transform="translate(507.004 311.123)" fill="#e9f8dd"/>
      <path id="Path_1036" data-name="Path 1036" d="M54.79,73.57l2.446,3.438Z" transform="translate(217.413 422.447)" fill="#fcfaf3"/>
      <path id="Path_1037" data-name="Path 1037" d="M275.841,60.107c.17.51,21.417,21.417,21.276,21.669.651.6-175.79,175.063-178.831,183.26-15.338-2.578-30.411,4.892-47.666.793C70.678,265.78,275.5,59.937,275.841,60.107Z" transform="translate(306.238 375.698)" fill="#f19a27"/>
      <path id="Path_1038" data-name="Path 1038" d="M208.2,91.927C208.2,92.2,76.573,224.115,76.429,224.1c-.127.149-2.312-45.826-2.312-45.826,0,.272,5.014-3.654,8.782-7.62Q133.673,119.683,184.579,68.91C184.535,69.082,208.332,92.086,208.2,91.927Z" transform="translate(321.394 396.299)" fill="#db612c"/>
      <path id="Path_1040" data-name="Path 1040" d="M155.98,105.5l20.4,18.766c.068.254-49.361,50.993-49.481,50.639.12-.19-18.51-18.819-18.647-18.683-.135-.272,39.435-41.882,39.435-42.29.272,0-25.157-21.077-25.428-21.213,0,.272,12.314-11.55,12.238-11.694,11.988-12.826,24.443-25.229,36.432-38.011a8.859,8.859,0,0,1,8.793-3.636c4.3,1.322,2.711,5.487,3.041,8.594.727,7.206,7.078,21.9,6.807,21.9C189.568,69.871,156.116,105.77,155.98,105.5Z" transform="translate(529.037 229.748)" fill="#f19a27"/>
      <path id="Path_1041" data-name="Path 1041" d="M148.234,120.427c.119-.071-25.992-24.139-25.916-24.307-.076,0,57.52-57.69,57.385-57.921-.272-.041,52.9-4.448,52.9-4.528.144-.055-84.289,86.7-84.365,86.756Z" transform="translate(614.779 185.175)" fill="#f19a27"/>
      <path id="Path_1046" data-name="Path 1046" d="M76.053,103.712c-4.165,3.9-11.041.661-14.743,5.619-1.785-.529-2.248-1.917-2.38-3.57l3.7-6.611Z" transform="translate(240.644 565.98)" fill="#f5a842"/>
      <path id="Path_1047" data-name="Path 1047" d="M62.007,112.158c-1.454-6.611,0-13.222-3.107-18.908h5.157C63.2,99.332,66.172,106.076,62.007,112.158Z" transform="translate(240.475 532.874)" fill="#f5a842"/>
      <path id="Path_1049" data-name="Path 1049" d="M76.226,99.762a7.6,7.6,0,0,1-10.446,4.628l5.355-5.619Z" transform="translate(279.08 563.848)" fill="#f5a842"/>
      <path id="Path_1050" data-name="Path 1050" d="M70.134,102.646a7.272,7.272,0,0,1-7.4,0C65.044,98.018,67.49,98.018,70.134,102.646Z" transform="translate(261.966 566.12)" fill="#f5a842"/>
      <path id="Path_1051" data-name="Path 1051" d="M60.19,95.123c.463-2.049,2.116-2.512,3.834-2.843C63.628,94.4,62.173,95.057,60.19,95.123Z" transform="translate(247.714 527.431)" fill="#f5a842"/>
      <path id="Path_1053" data-name="Path 1053" d="M106.1,53.057,104.12,51.47Z" transform="translate(494.21 298.441)" fill="#e9f8dd"/>
      <path id="Path_1055" data-name="Path 1055" d="M61.64,93.1l2.182-1.785Z" transform="translate(255.85 522.045)" fill="#f5a842"/>
      <path id="Path_1059" data-name="Path 1059" d="M204,78.24a11.108,11.108,0,0,0,2.115.6,449.558,449.558,0,0,1-60.095,60.36,430.087,430.087,0,0,1-2.182-58.376,221.016,221.016,0,0,0,42.311-2.182h10.115Z" transform="translate(715.959 448.651)" fill="#0e9549"/>
      <path id="Path_1063" data-name="Path 1063" d="M159.97,82.1c0,2.446-.727,4.363-3.57,4.628a5.686,5.686,0,0,1,3.57-4.628Z" transform="translate(787.56 470.31)" fill="#e9f8dd"/>
      <path id="Path_1064" data-name="Path 1064" d="M159.454,82.93c0,2.314-1.124,4.033-3.834,4.033C156.347,85.112,157.207,83.393,159.454,82.93Z" transform="translate(783.183 474.967)" fill="#e9f8dd"/>
      <path id="Path_1066" data-name="Path 1066" d="M161.557,106.347l2.578-2.446,2.578-2.446c.793-.859,1.587-1.785,2.446-2.644a13.553,13.553,0,0,0,7.4-7.537h0c4.562-1.587,7.867-1.983,7.867,4.826a79.929,79.929,0,0,0,1.983,21.023c4.231,15.47-8.66,21.751-15.47,31.4l-16.329,12.5c-1.851-14.346.793-28.1-2.975-41.253v-6.082a10.511,10.511,0,0,0,9.917-7.338Z" transform="translate(760.851 516.339)" fill="#b8cf44"/>
      <path id="Path_1067" data-name="Path 1067" d="M162.986,120.58c.529,10.776.793,21.552,1.719,32.262.529,6.611-1.058,9.784-8.594,9.52-12.363-.4-24.792,0-37.221,0C132.839,147.884,146.062,132.017,162.986,120.58Z" transform="translate(577.086 686.226)" fill="#fcfaf3"/>
      <path id="Path_1069" data-name="Path 1069" d="M152.849,90.52v6.611a4.231,4.231,0,0,1,0-6.611Z" transform="translate(758.716 517.556)" fill="#b8cf44"/>
      <path id="Path_1070" data-name="Path 1070" d="M88.089,125.886,82.8,127.142l1.19-2.512Z" transform="translate(374.581 708.951)" fill="#87bd4a"/>
      <path id="Path_1074" data-name="Path 1074" d="M186.011,88.905A221.013,221.013,0,0,1,143.7,91.087c4.958-4.892,7.206-12.429,14.743-14.677-2.314,6.611-2.116,10.776,7.14,10.313C172.128,86.393,179.73,83.947,186.011,88.905Z" transform="translate(716.299 438.383)" fill="#e9f8dd"/>
      <path id="Path_1075" data-name="Path 1075" d="M154.448,74.14c.463,5.355-1.917,7.867-7.338,7.537a8.132,8.132,0,0,1,7.338-7.537Z" transform="translate(735.433 425.646)" fill="#e9f8dd"/>
      <path id="Path_1076" data-name="Path 1076" d="M160.36,68.06c.463,5.223-1.851,7.8-7.14,7.6a14.346,14.346,0,0,1,7.14-7.6Z" transform="translate(769.717 391.53)" fill="#e9f8dd"/>
      <path id="Path_1077" data-name="Path 1077" d="M162.4,66.62c0,5.355-2.644,7.4-7.735,6.611A15.073,15.073,0,0,1,162.4,66.62Z" transform="translate(777.853 383.45)" fill="#e9f8dd"/>
      <path id="Path_1078" data-name="Path 1078" d="M158.391,69.6c0,4.231-.793,7.735-6.611,6.611C153.234,72.972,154.623,70.2,158.391,69.6Z" transform="translate(761.636 400.171)" fill="#e9f8dd"/>
      <path id="Path_1079" data-name="Path 1079" d="M153.007,72.79c0,2.777-1.587,3.636-3.967,3.834Z" transform="translate(746.262 418.07)" fill="#e9f8dd"/>
      <path id="Path_1080" data-name="Path 1080" d="M152.156,72.18l-2.446,2.777Z" transform="translate(750.021 414.648)" fill="#e9f8dd"/>
      <path id="Path_1081" data-name="Path 1081" d="M152.913,71.89l-2.843,1.983Z" transform="translate(752.042 413.021)" fill="#e9f8dd"/>
      <path id="Path_1082" data-name="Path 1082" d="M81.534,157.291c-.463-.529-2.049-1.388-1.917-2.182.661-5.818,6.611-8.264,9.057-12.759,1.851-3.041,4.694-1.322,6.148.727,3.967,5.553,7.537,5.289,11.7,0,1.454-1.851,3.768-3.636,6.214-.926s.793,4.628-1.19,6.611c-4.826,4.231-8.528,12.627-16.991,4.958C88.409,148.035,86.823,158.15,81.534,157.291Z" transform="translate(356.675 799.125)" fill="#e9f8dd"/>
      <path id="Path_1083" data-name="Path 1083" d="M88.166,156.813c-.859-1.388-1.256-2.049-1.719-2.711-2.182-2.843-8.793-4.3-3.835-9.388,2.711-2.843,5.355.661,7.008,2.843,2.909,3.768,10.71,5.62,5.686,12.826-1.454,1.983-3.239,3.768-4.892,5.619s-5.619,4.826-8.594,2.049,1.256-4.76,2.711-6.611S87.042,158.135,88.166,156.813Z" transform="translate(363.265 815.668)" fill="#e9f8dd"/>
      <path id="Path_1084" data-name="Path 1084" d="M94.657,147.629a28.361,28.361,0,0,1-13.222,12.759c-1.19.4-3.967-.529-3.107-2.644a21.155,21.155,0,0,1,11.437-12.3C91.55,144.522,93.2,145.844,94.657,147.629Z" transform="translate(348.576 824.058)" fill="#e9f8dd"/>
      <path id="Path_1085" data-name="Path 1085" d="M87,133.207a6.941,6.941,0,0,1,9.983,0Z" transform="translate(398.148 745.197)" fill="#87bd4a"/>
      <path id="Path_1086" data-name="Path 1086" d="M188.486,42.055C200.32,32.138,206.072,33,214.2,44.633c1.719,2.446,2.248,4.363,0,6.611s-4.562,1.058-6.148-1.058c-5.421-7.074-10.578-6.611-15.8,0-2.248,3.041-4.628,3.306-6.611,0a20.286,20.286,0,0,0-1.587-1.917c-9.52,9.189-21.685-11.371-30.808,2.777-1.256,1.917-3.372,2.049-5.289,0s-3.372-5.157-.463-6.016c7.272-2.116,8.859-21.42,21.486-7.272,1.388,1.521,2.644,0,3.9-1.19C181.28,27.246,186.5,30.155,188.486,42.055Z" transform="translate(728.368 183.832)" fill="#e9f8dd"/>
      <path id="Path_1087" data-name="Path 1087" d="M161.167,39.215l10.313-.463h0v2.512h0c-3.967,2.116-7.669,4.363-7.735,9.586-.463,10.908,8.132,10.247,14.677,10.578,12.032.727,24.131,0,36.163,0,15.867,0,18.908-4.1,14.809-20.428l-2.909-2.512-4.231-4.76c9.983,1.19,11.041-3.372,7.008-11.107,1.917-2.446,4.3-3.7,4.429.661.4,11.636.331,23.337,0,34.973,0,6.942-5.752,5.884-10.181,5.884H174.786a28.428,28.428,0,0,0-13.222,1.719c-.793-2.182-1.52-4.429-2.314-6.611C159.911,52.834,160.506,46.024,161.167,39.215Z" transform="translate(803.552 124.065)" fill="#cb8c7d"/>
      <path id="Path_1089" data-name="Path 1089" d="M169.954,49.463c-6.611,6.611-11.7,11.9-16.858,16.66-.463.463-3.107-.793-4.165-1.785a3.9,3.9,0,0,1,.86-6.611c7.074-4.694,8.859-9.256.727-14.743-2.049-1.454-3.636-3.57-1.256-6.611s4.363-1.454,6.611,0Z" transform="translate(737.446 203.992)" fill="#e9f8dd"/>
      <path id="Path_1090" data-name="Path 1090" d="M169.756,38.284a20.5,20.5,0,0,1-1.719,3.107c-4.231,5.157-7.14,10.181,0,15.4a3.9,3.9,0,0,1,.727,6.611c-2.578,2.512-4.76.992-6.214-1.19-3.438-4.892-11.7-6.611-10.512-14.148.992-6.082,7.4-8.661,12.032-12.1C167.046,33.59,168.632,35.309,169.756,38.284Z" transform="translate(762.436 205.188)" fill="#e9f8dd"/>
      <path id="Path_1091" data-name="Path 1091" d="M148.895,55.972c-1.322-.793-2.645-1.124-3.306-1.983-3.768-4.694.992-7.074,3.438-8.793,4.3-2.909,5.421-11.437,13.222-7.867.992.463,2.182,3.57,1.719,3.967C159.208,46.585,154.117,51.014,148.895,55.972Z" transform="translate(719.037 214.275)" fill="#e9f8dd"/>
      <path id="Path_1092" data-name="Path 1092" d="M174.635,50.783c-.463,1.785,0,4.165-2.578,4.892a43.831,43.831,0,0,1-15.933-14.412,4.363,4.363,0,0,1,3.041-4.76C161.611,35.709,174.3,47.477,174.635,50.783Z" transform="translate(785.786 214.242)" fill="#e9f8dd"/>
      <path id="Path_1093" data-name="Path 1093" d="M156.15,26.4h2.975C158.133,27.458,157.142,27.524,156.15,26.4Z" transform="translate(786.157 157.77)" fill="#cb8c7d"/>
      <path id="Path_1094" data-name="Path 1094" d="M153.13,26.36h2.777C154.981,27.484,154.056,27.55,153.13,26.36Z" transform="translate(769.212 157.546)" fill="#cb8c7d"/>
      <path id="Path_1095" data-name="Path 1095" d="M152,26.36h2.711C153.719,27.55,152.793,27.55,152,26.36Z" transform="translate(762.871 157.546)" fill="#cb8c7d"/>
      <path id="Path_1096" data-name="Path 1096" d="M143.66,28.376c0-1.653,1.058-2.38,2.711-1.851Z" transform="translate(716.074 157.514)" fill="#cb8c7d"/>
      <path id="Path_1097" data-name="Path 1097" d="M330.676,49.279c1.124,8-4.3,12.171-11.241,18.716-57.05,55.8-133.605,132.738-156.017,155.613-5.421,5.553-5.576,4.079-9.248,1.632,0,0-22.969-23.292-31.684-32.228-.781-.8.927.908,0,0,.282-1.2-1.4-.624-.724-1.653,32-31.733,63.731-63.6,96.06-94.936,17.652-17.123,33.056-36.229,52.889-50.972Z" transform="translate(581.024 256.596)" fill="#db612c"/>
      <path id="Path_1098" data-name="Path 1098" d="M308.916,115.175c.411.16-35.5,33.849-52.889,50.972-32.328,31.337-95.465,96.729-95.6,96.729,0,0-47.457-45.146-47.6-45.162-.133.016,47.629-52.22,47.6-52.473.305.2,26.789,25.089,26.845,25.1,4.958,5.024,9.123,5.289,13.817.6.065.24,38.82-39.194,38.543-39.138,4.892-4.76,5.329-8.281,1.3-12.975.1,0-21.155-20.34-21.349-20.363.364.364,84.716-86.756,84.511-86.852.07.1,5.1,83.589,4.826,83.565Z" transform="translate(543.083 187.004)" fill="#f5a842"/>
      <path id="Path_1100" data-name="Path 1100" d="M156.273,21.587h8.793c4.826.463,12.3-2.975,12.032,6.082,0,4.628,3.636,12.5-4.76,13.222-6.611.529-15.933,5.223-17.718-7.14C155.149,29.719,155.744,25.819,156.273,21.587Z" transform="translate(777.572 129.263)" fill="#ec9f42"/>
      <path id="Path_1102" data-name="Path 1102" d="M176.4,19.862c.6,5.818-2.314,7.735-8,7.867s-7.206-3.239-7.338-8.462,2.512-8.132,8.066-8.066S177.261,14.176,176.4,19.862Z" transform="translate(813.704 72.48)" fill="#ec9f42"/>
      <path id="Path_1103" data-name="Path 1103" d="M170.721,16C158.16,19.438,164.507,31.007,161,38.346,157.5,19.7,158.623,16.859,170.721,16Z" transform="translate(803.65 99.415)" fill="#cb8c7d"/>
      <path id="Path_1105" data-name="Path 1105" d="M137.385,32.08,134.41,33.2Z" transform="translate(664.171 189.642)" fill="#fbcb2c"/>
      <path id="Path_1106" data-name="Path 1106" d="M162.673,155.767c-2.116,4.3-5.091,4.231-8,1.388-5.818-5.62-10.908-13.817-19.833-3.173-1.256,1.521-4.231,0-5.024-2.314-1.521-3.9,2.116-5.289,4.429-6.611,4.231-1.917,5.553-11.635,11.107-7.008a101.2,101.2,0,0,1,15.47,14.214,12.1,12.1,0,0,1,1.851,3.5Z" transform="translate(636.371 777.312)" fill="#e9f8dd"/>
      <path id="Path_1107" data-name="Path 1107" d="M147.311,153a33.716,33.716,0,0,1-13.222,12.3c-2.116,1.058-4.628-1.917-3.24-3.372,5.686-6.148,3.372-11.636,0-17.718-1.058-1.851,1.256-4.363,3.5-3.306A29.618,29.618,0,0,1,147.311,153Z" transform="translate(641.949 798.853)" fill="#e9f8dd"/>
      <path id="Path_1108" data-name="Path 1108" d="M143.386,146.026c-4.76,3.107-5.421,10.71-12.231,12.3a3.306,3.306,0,0,1-3.636-3.834,24.262,24.262,0,0,1,12.826-12.164C141.667,141.53,143.121,143.448,143.386,146.026Z" transform="translate(625.247 807.217)" fill="#e9f8dd"/>
      <path id="Path_1109" data-name="Path 1109" d="M64.26,141.106A387.279,387.279,0,0,1,103.2,102.1c7.6,10.908,2.38,23.8,5.355,35.568,1.124,4.5-5.223,5.223-9.454,5.223H64.458Z" transform="translate(270.551 582.532)" fill="#f19a27"/>
      <path id="Path_1110" data-name="Path 1110" d="M74.7,96.61a8.132,8.132,0,0,1-5.95,6.214A6.611,6.611,0,0,1,74.7,96.61Z" transform="translate(295.745 551.727)" fill="#f5a842"/>
      <path id="Path_1111" data-name="Path 1111" d="M69.694,98.52c-.793.793-1.587,1.653-2.314,2.512C68.173,100.173,68.9,99.313,69.694,98.52Z" transform="translate(288.058 562.445)" fill="#f5a842"/>
      <path id="Path_1112" data-name="Path 1112" d="M70.13,98.13l-2.38,2.446Z" transform="translate(290.134 560.256)" fill="#f5a842"/>
      <path id="Path_1113" data-name="Path 1113" d="M70.007,97.64,68.42,99.293A2.116,2.116,0,0,1,70.007,97.64Z" transform="translate(293.893 557.507)" fill="#f5a842"/>
      <path id="Path_1114" data-name="Path 1114" d="M77.14,171c3.636-6.611,6.611-14.809,13.751-16.065,3.768-.661,7.8,5.223,9.322,12.3C91.089,162.271,84.412,167.1,77.14,171Z" transform="translate(342.822 878.701)" fill="#e9f8dd"/>
      <path id="Path_1115" data-name="Path 1115" d="M88.4,157.448c1.719,4.826-4.76,6.611-2.38,10.776,1.454,2.578,6.214,4.694,1.521,7.8-2.248,1.455-4.363-1.521-5.884-3.372s-6.611-5.091-2.314-9.189C81.854,161.084,83.11,156.787,88.4,157.448Z" transform="translate(345.711 892.714)" fill="#e9f8dd"/>
      <path id="Path_1116" data-name="Path 1116" d="M76.142,176.123c0-6.611,5.686-12.429-3.372-18.313A9.85,9.85,0,0,1,85.2,165.28C87.513,171.891,79.844,172.619,76.142,176.123Z" transform="translate(318.302 892.881)" fill="#e9f8dd"/>
      <path id="Path_1117" data-name="Path 1117" d="M80,158.83c6.611-.926,8.793,2.843,10.974,6.611,0,.529-.992,2.909-1.521,2.909C83.636,168.218,83.5,161.937,80,158.83Z" transform="translate(358.87 900.058)" fill="#e9f8dd"/>
      <path id="Path_1118" data-name="Path 1118" d="M108.774,161.871c-7.8,5.752-7.074,11.635-.859,18.379,1.785,1.917-1.719,4.958-4.231,3.9a17.189,17.189,0,0,1-11.636-12.363c-.727-5.884,5.884-11.041,3.967-17.982,0-1.124,3.306-2.314,5.355-.992a16.99,16.99,0,0,1,7.4,9.057Z" transform="translate(426.156 863.829)" fill="#e9f8dd"/>
      <path id="Path_1119" data-name="Path 1119" d="M106.068,168.135a16.991,16.991,0,0,1-11.7,12.561c-4.3,1.058-4.694-2.446-3.173-5.487s5.619-6.611,1.058-10.776c-2.512-2.446-3.967-6.611-.661-8.661s5.553,2.314,7.669,4.562S105.407,164.565,106.068,168.135Z" transform="translate(413.127 880.704)" fill="#e9f8dd"/>
      <path id="Path_1120" data-name="Path 1120" d="M113.183,145.5c6.148,0,11.636-.661,11.9,6.611,0,5.024,3.107,6.148,7.272,6.611,2.38,0,5.686,0,5.355,3.438a4.694,4.694,0,0,1-5.619,3.768c-5.95-.727-15.47,4.892-15.007-8.066,0-3.107-2.38-3.834-5.025-4.363s-8.991,1.587-7.6-4.76C105.514,143.652,111,146.759,113.183,145.5Z" transform="translate(494.998 825.986)" fill="#e9f8dd"/>
      <path id="Path_1121" data-name="Path 1121" d="M120.835,147.38c4.165,1.256,10.578-1.785,10.181,4.5s-6.611,3.5-10.247,3.306-11.173,2.644-10.776-4.033S117.728,149.628,120.835,147.38Z" transform="translate(527.079 836.604)" fill="#e9f8dd"/>
      <path id="Path_1122" data-name="Path 1122" d="M72.169,112.29c-4.76,12.892-14.082,5.09-21.09,6.611C52.468,116.191,52.468,116.191,72.169,112.29Z" transform="translate(196.596 639.71)" fill="#e9f8dd"/>
      <path id="Path_1123" data-name="Path 1123" d="M66.74,114.13c-1.322,5.421-4.1,10.247.859,14.941a7.6,7.6,0,0,1-11.7-5.818C54.84,116.708,62.112,116.708,66.74,114.13Z" transform="translate(223.049 650.034)" fill="#e9f8dd"/>
      <path id="Path_1124" data-name="Path 1124" d="M55.5,116.046c6.611-1.521,14.677-10.776,19.833,7.206-6.611-10.181-15.206,3.967-19.833-7.272Z" transform="translate(221.397 639.855)" fill="#e9f8dd"/>
      <path id="Path_1125" data-name="Path 1125" d="M51.55,113.76c15.139,9.256,10.512,14.677,1.851,21.222C52.872,127.842,56.112,121.958,51.55,113.76Z" transform="translate(199.233 647.958)" fill="#e9f8dd"/>
      <path id="Path_1126" data-name="Path 1126" d="M57.249,115.507,55.2,113.193l1.454-.793a6.708,6.708,0,0,0,.529,3.173Z" transform="translate(219.714 640.327)" fill="#e9f8dd"/>
      <path id="Path_1127" data-name="Path 1127" d="M68.263,99.347c6.611-1.322,10.974,5.421,17.652,4.165,2.512-.463,3.041,2.843,2.049,4.628-1.653,3.041-4.826,6.148-8.066,3.9-9.256-6.611-12.1-.4-15.47,7.074L87.3,120.5a74.97,74.97,0,0,1-44.823.992C58.016,119.907,63.107,109.528,68.4,99.28Z" transform="translate(148.341 566.114)" fill="#e9f8dd"/>
      <path id="Path_1128" data-name="Path 1128" d="M62.882,117.416a60.822,60.822,0,0,1-18.445-15.867,4.694,4.694,0,0,1-.727-4.363c.793-1.851,2.843-1.454,4.033,0,5.884,6.148,16.462,8.991,15.007,20.494Z" transform="translate(153.855 547.978)" fill="#e9f8dd"/>
      <path id="Path_1129" data-name="Path 1129" d="M53.894,98.84v7.206a4.5,4.5,0,0,1,0-7.206Z" transform="translate(202.245 564.24)" fill="#f5a842"/>
      <path id="Path_1130" data-name="Path 1130" d="M52.763,98.06c0,.595.661,1.124.859,1.719s-.529.463-.793.661a2.38,2.38,0,0,1-.066-2.38Z" transform="translate(204.433 559.864)" fill="#fcfaf3"/>
      <path id="Path_1131" data-name="Path 1131" d="M52.881,97.32a1.785,1.785,0,0,1,0,2.182,6.214,6.214,0,0,1-.661-1.521A5.815,5.815,0,0,0,52.881,97.32Z" transform="translate(202.993 555.711)" fill="#f5a842"/>
      <path id="Path_1132" data-name="Path 1132" d="M190.849,72.087c-7.074-8.859-13.222-8.859-19.238,0-1.124,1.653-4.033,3.768-6.611,1.388s-.661-4.826,1.256-6.611c5.289-4.1,8.264-13.222,16.528-10.776a11.5,11.5,0,0,1,8.066,16Z" transform="translate(828.809 322.053)" fill="#e9f8dd"/>
      <path id="Path_1133" data-name="Path 1133" d="M166.36,63.791c1.058-3.372,2.644-6.611,6.611-3.7a60.563,60.563,0,0,1,13.222,12.627c4.165,5.95-1.389,7.14-5.752,8.264C178.987,72.452,171.583,69.014,166.36,63.791Z" transform="translate(843.447 340.463)" fill="#e9f8dd"/>
      <path id="Path_1134" data-name="Path 1134" d="M164.839,54.09c4.363,6.016,12.3,9.256,15.6,16.66,1.124,2.578-1.454,5.553-4.1,3.372a118.139,118.139,0,0,1-15.007-14.875C159.154,57,160.542,54.487,164.839,54.09Z" transform="translate(809.532 313.142)" fill="#e9f8dd"/>
      <path id="Path_1135" data-name="Path 1135" d="M184.7,77.189c-4.429,5.223-8.859,2.446-11.041-1.454-2.777-5.024-10.38-7.206-8.793-14.544,0-.793,2.777-.992,4.3-1.521C174.317,65.554,179.54,71.372,184.7,77.189Z" transform="translate(833.837 344.453)" fill="#e9f8dd"/>
      <path id="Path_1136" data-name="Path 1136" d="M180.866,77.189c-5.157-5.818-10.38-11.636-15.536-17.519h6.611c5.223,5.223,12.627,8.727,13.949,17.189Z" transform="translate(837.667 344.453)" fill="#7ba766"/>
      <path id="Path_1137" data-name="Path 1137" d="M188.155,64.715a15.735,15.735,0,0,1-22.875,0A78.012,78.012,0,0,1,188.155,64.715Z" transform="translate(837.387 368.033)" fill="#e9f8dd"/>
      <path id="Path_1138" data-name="Path 1138" d="M168.141,64c-2.512,5.752-5.157,5.752-7.8,0Z" transform="translate(809.668 368.749)" fill="#e9f8dd"/>
      <path id="Path_1140" data-name="Path 1140" d="M168.491,99.133c-1.124-4.562,0-6.148,1.917-7.4,6.611-5.223,7.6-10.379,0-15.8-1.983-1.454-4.5-3.438-2.248-6.016s4.76,0,6.611,1.454c4.429,3.5,12.429,6.611,10.908,12.3C183.829,91.068,175.962,94.836,168.491,99.133Z" transform="translate(848.587 395.76)" fill="#e9f8dd"/>
      <path id="Path_1141" data-name="Path 1141" d="M175.927,70.307c2.909.793,8.33-1.917,9.123,3.041s-4.76,3.9-8,4.5c-2.049,0-4.033.4-5.223,2.578s.793,9.123-5.355,7.008c-3.834-1.388-2.38-6.611-2.578-10.115-.331-5.553,3.239-7.008,7.933-7.008Z" transform="translate(828.988 403.893)" fill="#e9f8dd"/>
      <path id="Path_1142" data-name="Path 1142" d="M164.51,82.989c.992-3.239-2.049-8.925,3.239-9.189,6.611,0,3.9,5.95,4.033,9.388s2.049,8.925-3.107,9.123C162.13,92.576,165.568,86.3,164.51,82.989Z" transform="translate(833.066 423.738)" fill="#e9f8dd"/>
      <path id="Path_1143" data-name="Path 1143" d="M164.941,91.812c-4.5-6.611-1.124-12.231,1.917-17.586,0-.529,3.041-.463,3.173,0C172.544,81.432,166.131,85.663,164.941,91.812Z" transform="translate(823.248 424.039)" fill="#e9f8dd"/>
      <path id="Path_1144" data-name="Path 1144" d="M45.516,142.152c1.587-8.727,14.346-9.123,14.082-19.172a153.234,153.234,0,0,1,20.693,1.785c4.892.992,3.041,6.215,3.107,9.652.926,33.056.926,33.056-31.535,32.2-3.173,0-7.537,1.653-9.256-1.587-2.314-4.363,2.843-6.082,4.892-8.925s4.562-4.363.661-7.074C47.234,146.714,46.375,144.466,45.516,142.152Z" transform="translate(145.768 699.693)" fill="#f19a27"/>
      <path id="Path_1145" data-name="Path 1145" d="M71.724,125.916c-.926,4.231-4.231,6.611-6.942,8.859s-4.231,3.9-6.148.727c-4.033-6.611-7.867-4.165-12.231-.6a4.892,4.892,0,0,1-6.611-.4c-2.182-2.578,1.058-4.363,2.512-6.016,4.3-4.892,8.991-9.785,15.47-3.041,3.7,3.834,5.818,0,8.528-1.124S71,122.214,71.724,125.916Z" transform="translate(129.145 695.037)" fill="#e9f8dd"/>
      <path id="Path_1146" data-name="Path 1146" d="M53.073,132.331c.859,2.314,1.719,4.562,2.644,6.611-1.719,1.124-3.372,2.248-5.091,3.239-2.843,1.785-4.033,8.132-8.264,5.024s.6-5.619,2.512-8,.859-3.636,0-5.487-5.884-5.421-1.983-8.2,5.091,2.512,7.537,4.3Z" transform="translate(138.211 709.514)" fill="#e9f8dd"/>
      <path id="Path_1147" data-name="Path 1147" d="M63.281,140.4c.661,4.76-2.644,4.429-5.487,4.628-4.429,0-8.462,0-8.33-6.215,0-3.57-.793-8.2,4.694-8.4C60.9,130.216,60.769,136.694,63.281,140.4Z" transform="translate(187.304 741.38)" fill="#f19a27"/>
      <path id="Path_1148" data-name="Path 1148" d="M42.72,116.32c3.834.661,6.148,2.38,6.082,5.818s-3.57,4.033-6.611,3.967-6.611,0-6.611-4.033S39.811,116.981,42.72,116.32Z" transform="translate(109.624 662.323)" fill="#f19a27"/>
      <path id="Path_1149" data-name="Path 1149" d="M47.609,131.32c0,2.446-.6,3.7-2.512,3.9s-5.157,0-5.752-2.975a2.909,2.909,0,0,1,2.38-3.636,5.62,5.62,0,0,1,5.884,2.711Z" transform="translate(130.187 730.755)" fill="#f19a27"/>
      <path id="Path_1150" data-name="Path 1150" d="M38.27,128.711c1.058-1.058,2.248-2.248,3.5-.463a14.54,14.54,0,0,1-1.256,2.644Z" transform="translate(124.718 724.109)" fill="#fefefd"/>
      <path id="Path_1151" data-name="Path 1151" d="M28.23,141.78c1.653-9.189,5.091-16.263,16.131-10.776,4.628,2.314,7.471-3.173,11.569-1.455-2.446,11.834-3.768,12.759-14.544,8.33-5.355-2.248-5.752,3.306-8.727,4.628Z" transform="translate(68.382 733.914)" fill="#e9f8dd"/>
      <path id="Path_1152" data-name="Path 1152" d="M38.452,133.272c0,7.537-5.289,9.718-13.222,13.222,2.644-6.611,4.1-9.917,5.553-13.222C33.229,129.9,35.808,133.272,38.452,133.272Z" transform="translate(51.549 749.033)" fill="#e9f8dd"/>
      <path id="Path_1153" data-name="Path 1153" d="M38.96,134.694c0,7.471-8.066,6.942-11.371,11.371-1.653-6.611,5.553-8.132,6.148-13.222v-.463h2.909Z" transform="translate(63.404 752.437)" fill="#e9f8dd"/>
      <path id="Path_1154" data-name="Path 1154" d="M31.536,139.859H28.627L28.23,131l4.429.727C32.131,134.24,35.965,137.611,31.536,139.859Z" transform="translate(68.382 744.694)" fill="#ec9f42"/>
      <path id="Path_1156" data-name="Path 1156" d="M167.806,85.18c7.537,4.1,13.685,7.008,5.752,14.346-4.3,4.033-.992,6.611,1.454,9.256s3.173,4.231.331,6.611-5.024,0-6.611-2.049c-3.306-5.091-9.917-9.586-2.843-16.991C168,94.171,167.211,89.808,167.806,85.18Z" transform="translate(823.159 487.592)" fill="#e9f8dd"/>
      <path id="Path_1157" data-name="Path 1157" d="M164.172,112.313c-2.975-.727-4.694-3.57-3.173-4.5,8.859-5.686-3.041-15.867,3.636-19.3,3.305-1.653,11.636,6.611,11.173,11.041S169.2,109.6,164.172,112.313Z" transform="translate(810.199 505.085)" fill="#e9f8dd"/>
      <path id="Path_1158" data-name="Path 1158" d="M165.894,93.285c-.331,2.248.661,5.752-2.446,6.016-4.429.4-4.826-3.372-4.958-6.611Z" transform="translate(799.287 529.732)" fill="#fcfaf3"/>
      <path id="Path_1159" data-name="Path 1159" d="M225.624,40.459c4.1,16.329,1.058,20.494-14.809,20.428-12.032,0-24.131.463-36.163,0-6.611-.331-15.139.331-14.677-10.578a7.8,7.8,0,0,0,7.008-3.173l8.594,2.644c12.1-2.711,15.007-8.066,9.19-16.66l2.578-6.611,2.446-.992c3.636.331,5.421-1.256,5.355-4.958h0a26.974,26.974,0,0,1,5.487,15.867l-3.57,5.091c-1.719,2.446-6.611,4.628-3.636,7.867s5.289-3.438,8.66-3.834l6.611.331c0,3.107,1.058,6.281,5.024,3.636a93.93,93.93,0,0,0,9.983-8.594Z" transform="translate(807.52 125.001)" fill="#f19a27"/>
      <path id="Path_1160" data-name="Path 1160" d="M181.27,25.545l-2.578,6.611c-2.512-.992-2.909-5.421-6.611-4.3-1.851.6-2.843,2.644-1.322,3.7,9.057,6.611,0,11.569-1.124,17.255l-8.594-2.644a63.023,63.023,0,0,1,.727-6.611h0c1.587.727,3.57.463,3.636-1.058s-1.983-1.719-3.5-1.454h0a9.784,9.784,0,0,0,.86-12.231C168.775,20.653,175.188,17.81,181.27,25.545Z" transform="translate(813.595 125.702)" fill="#cb8c7d"/>
      <path id="Path_1161" data-name="Path 1161" d="M180.2,32.665c-6.082-7.735-12.5-4.892-18.974-.661,1.719-11.768,5.223-14.148,15.6-9.917,3.041,1.256,4.429-.331,6.611-1.256,8.991-3.967,6.611,1.19,4.5,5.818h0l-5.355,4.958Z" transform="translate(814.662 118.582)" fill="#e9f8dd"/>
      <path id="Path_1162" data-name="Path 1162" d="M182.838,33.69a93.936,93.936,0,0,1-9.983,8.594c-3.967,2.644-4.694-.529-5.024-3.636v-.926a16.156,16.156,0,0,0-.661-1.587h0c14.743-2.843-1.454-9.123,1.851-13.751,4.1-2.38,5.553,3.107,8.793,3.768l4.231,4.76Z" transform="translate(847.992 131.903)" fill="#e9f8dd"/>
      <path id="Path_1163" data-name="Path 1163" d="M174.838,32.055c-3.372.4-4.628,7.8-8.661,3.834s1.917-5.421,3.636-7.867l3.57-5.091c5.024-.4,5.62,3.834,7.272,7.074h0C178.011,28.684,176.292,30.138,174.838,32.055Z" transform="translate(834.704 138.166)" fill="#e9f8dd"/>
      <path id="Path_1167" data-name="Path 1167" d="M173.2,20.593c1.058-3.9-.463-8.727,3.967-11.5l2.116,2.182c-.4,3.768,1.124,5.752,5.024,5.355h0c8.462,8.462,11.5,21.817,24.263,26.444a3.173,3.173,0,0,1,2.182,3.9,2.909,2.909,0,0,1-3.7,2.446c-16.792-3.967-33.915-.992-50.84-1.983-3.7,0-6.611-1.653-7.14-5.619s2.049-4.1,4.76-4.429C164.407,36.262,168.836,28.328,173.2,20.593Z" transform="translate(746.035 60.642)" fill="#f19a27"/>
      <path id="Path_1168" data-name="Path 1168" d="M166.506,20.979,164.391,18.8c-1.455-1.785-3.438-2.777-5.289-1.19-10.247,8.4-7.8.529-6.942-5.355l3.438-2.182,3.239-2.711h4.628a10.049,10.049,0,0,0,6.611,4.76h0a5.156,5.156,0,0,0,3.041,5.091l2.05,2.314c.992,3.5.529,6.214-3.834,6.611h0a9.124,9.124,0,0,0-4.826-5.157Z" transform="translate(758.81 50.935)" fill="#e9f8dd"/>
      <path id="Path_1169" data-name="Path 1169" d="M168.988,10.83c-4.628,7.6-8.793,15.668-19.238,16.462C153.386,18.565,158.014,10.9,168.988,10.83Z" transform="translate(750.246 70.405)" fill="#e9f8dd"/>
      <path id="Path_1170" data-name="Path 1170" d="M148.895,24.082,148.3,18.33A16.263,16.263,0,0,0,157.952,10h4.628C161.258,17.8,159.539,25.206,148.895,24.082Z" transform="translate(742.11 65.748)" fill="#e9f8dd"/>
      <path id="Path_1173" data-name="Path 1173" d="M155.42,18.02V15.64h2.446Z" transform="translate(782.061 97.395)" fill="#fcfaf3"/>
      <path id="Path_1174" data-name="Path 1174" d="M160.623,22.324a10.049,10.049,0,0,1-6.611-4.76C153.681,13.6,153.35,9.7,153.02,5.6,168.49,5.267,163.466,14.258,160.623,22.324Z" transform="translate(768.594 40.995)" fill="#ec9f42"/>
      <path id="Path_1175" data-name="Path 1175" d="M157.952,14.657a16.263,16.263,0,0,1-9.652,8.33c0-4.562,0-9.189.463-13.817C151.275,11.881,156.167,10.624,157.952,14.657Z" transform="translate(742.11 61.091)" fill="#ec9f42"/>
      <path id="Path_1176" data-name="Path 1176" d="M158.1,10.159,154.86,12.87c-2.049-1.058-5.091-2.314-2.38-4.892S156.843,7.779,158.1,10.159Z" transform="translate(759.548 48.136)" fill="#ec9f42"/>
      <path id="Path_1177" data-name="Path 1177" d="M157.223,13.171a5.156,5.156,0,0,1-3.041-5.091C157.157,8.609,157.355,10.724,157.223,13.171Z" transform="translate(775.035 54.975)" fill="#ec9f42"/>
      <path id="Path_1179" data-name="Path 1179" d="M175.63,65.049c3.306,0,5.752.859,5.619,4.76a4.3,4.3,0,0,1-4.694,4.5c-3.306,0-5.62-1.058-5.62-4.892a4.033,4.033,0,0,1,4.694-4.363Z" transform="translate(869.017 374.311)" fill="#7ba766"/>
      <path id="Path_1180" data-name="Path 1180" d="M62.36,104.831c8.859-2.38,10.71,1.388,8.132,9.123C70.293,108.665,66.591,106.417,62.36,104.831Z" transform="translate(259.89 593.884)" fill="#f5a842"/>
      <path id="Path_1182" data-name="Path 1182" d="M59.34,101.81a3.768,3.768,0,0,1,0,5.553Z" transform="translate(242.944 580.905)" fill="#f5a842"/>
      <path id="Path_1183" data-name="Path 1183" d="M55.5,100.465a4.231,4.231,0,0,1,2.38,0L56.1,102.713a5.355,5.355,0,0,1-.6-2.248Z" transform="translate(221.397 572.4)" fill="#f5a842"/>
      <path id="Path_1186" data-name="Path 1186" d="M110.16,57.06l2.38,2.777Z" transform="translate(528.102 329.808)" fill="#f5a842"/>
      <path id="Path_1192" data-name="Path 1192" d="M121.958,53.716,119.38,51.27Z" transform="translate(579.836 297.319)" fill="#f5a842"/>
      <path id="Path_1195" data-name="Path 1195" d="M159.167,80.024H151.63a4.43,4.43,0,0,1,7.537,0Z" transform="translate(760.795 446.868)" fill="#e9f8dd"/>
      <path id="Path_1196" data-name="Path 1196" d="M161.769,90.5a13.553,13.553,0,0,1-7.4,7.537C153.769,92.545,156.215,90.033,161.769,90.5Z" transform="translate(775.646 517.117)" fill="#e9f8dd"/>
      <path id="Path_1197" data-name="Path 1197" d="M156.108,92l-2.578,2.446Z" transform="translate(771.456 525.86)" fill="#e9f8dd"/>
      <path id="Path_1198" data-name="Path 1198" d="M167.471,23.57a59.384,59.384,0,0,1-.727,6.611A7.8,7.8,0,0,1,160,33.024C160,27.933,163.5,25.686,167.471,23.57Z" transform="translate(807.76 141.891)" fill="#fcfaf3"/>
      <path id="Path_1199" data-name="Path 1199" d="M161.242,23.21c1.521,0,3.57,0,3.5,1.454s-2.049,1.785-3.636,1.058Z" transform="translate(813.988 139.871)" fill="#fcfaf3"/>
      <path id="Path_1200" data-name="Path 1200" d="M170.045,25.834l-.595-2.644,2.909,2.512Z" transform="translate(860.785 139.759)" fill="#ec9f42"/>
      <path id="Path_1201" data-name="Path 1201" d="M162.32,42.881c1.256-5.686,10.181-10.776,1.124-17.255-1.521-1.058-.529-3.107,1.322-3.7,3.835-1.124,4.231,3.306,6.611,4.3C177.327,34.816,174.418,40.171,162.32,42.881Z" transform="translate(820.778 131.637)" fill="#e9f8dd"/>
      <path id="Path_1202" data-name="Path 1202" d="M164.47,25.478l5.355-4.958C169.891,24.222,167.974,25.809,164.47,25.478Z" transform="translate(832.842 124.777)" fill="#ec9f42"/>
      <path id="Path_1203" data-name="Path 1203" d="M166.32,26.532c1.454-2.116,3.173-3.372,5.884-2.182a16.149,16.149,0,0,1,.661,1.587v.926Z" transform="translate(843.222 143.689)" fill="#ec9f42"/>
      <path id="Path_1204" data-name="Path 1204" d="M153.632,9.42a9.123,9.123,0,0,1,5.024,5.355C154.756,15.172,153.235,13.254,153.632,9.42Z" transform="translate(771.685 62.494)" fill="#ec9f42"/>
    </g>
    <rect id="Rectangle_799" data-name="Rectangle 799" width="1365" height="852" transform="translate(1 85)" fill="#fff"/>
  </g>
</svg>
