<svg xmlns="http://www.w3.org/2000/svg" width="64.702" height="51.094" viewBox="0 0 64.702 51.094">
  <g id="ROWING" transform="translate(16.48 22.303)">
    <g id="Path_22256" data-name="Path 22256">
      <path id="Path_22672" data-name="Path 22672" d="M1,28.541a1.387,1.387,0,0,1-.948-.413,1.374,1.374,0,0,1-.475-.986,2.182,2.182,0,0,1,.767-1.531L7.108,18.7q-1.854,0-3.709-.01c-3.2-.011-6.516-.021-9.772.032a10.252,10.252,0,0,1-6.845-2.672c-.751-.614-1.468-1.319-2.16-2l-.116-.114a5.979,5.979,0,0,1-.671-.946l-.065-.115,0-1.147.086-.126a2.543,2.543,0,0,1,2.421-1.1c4.879.009,9.943,0,14.937.015a.614.614,0,0,0,.232-.024h0a.717.717,0,0,0,.08-.2q.907-3.078,1.84-6.143C4.358.87,5.383-2.524,6.333-5.877a3.647,3.647,0,0,1,4.34-2.757,3.66,3.66,0,0,1,.833.292c2.355.925,4.807,1.842,7.179,2.729l1.124.421q1.674.627,3.352,1.244,2.166.8,4.326,1.611c.129.064.221.043.271-.026C29.831-4.51,31.876-6.6,33.932-8.677c.094-.078.106-.137.079-.183a4.135,4.135,0,0,1,.777-4.726c2.032-2.128,3.905-4,5.718-5.731a4.356,4.356,0,0,1,6.1.032,4.28,4.28,0,0,1,.24,6.032C45.1-11.382,43.222-9.5,40.89-7.292a4.189,4.189,0,0,1-4.463.78.292.292,0,0,0-.178.03C34.366-4.631,32.5-2.759,30.64-.891l1.14.439a2.439,2.439,0,0,1,1.812,2.426A2.667,2.667,0,0,1,31.22,4.338a5.313,5.313,0,0,1-1.878-.159c-.532-.136-1.063-.313-1.592-.491-.372-.125-.744-.25-1.118-.358a.277.277,0,0,0-.215.04C24.1,5.706,21.729,8.1,19.368,10.506q12.456,0,24.909.006a11.43,11.43,0,0,1,1.791.149,1.089,1.089,0,0,1,.832.532,1.227,1.227,0,0,1,.006,1.083,2.821,2.821,0,0,1-.6.925c-.323.315-.635.622-.948.93-.952.941-1.937,1.915-2.992,2.785A8.474,8.474,0,0,1,36.847,18.7q-12.534-.006-25.1-.01a.835.835,0,0,0-.7.283Q6.776,23.382,2.5,27.731A2.216,2.216,0,0,1,1,28.541ZM-.682,17.683c1.373,0,2.738,0,4.085.009q2.05.008,4.1.01H9.423L8.41,18.788c-.144.155-.249.269-.358.38L1.06,26.311c-.427.436-.486.692-.483.8a.381.381,0,0,0,.155.278c.163.151.366.337,1.052-.363q4.284-4.354,8.536-8.738a1.773,1.773,0,0,1,1.456-.6q12.52.009,25.09.009a7.409,7.409,0,0,0,4.87-1.566c1.01-.834,1.979-1.791,2.916-2.717q.471-.466.945-.928a1.824,1.824,0,0,0,.383-.594.419.419,0,0,0,.047-.217h0a.493.493,0,0,0-.118-.033,10.554,10.554,0,0,0-1.634-.136q-12.645-.006-25.3-.006h-1.3l.186-.768.148-.271q3.87-3.951,7.771-7.86a1.294,1.294,0,0,1,1.126-.24c.4.115.78.244,1.165.373.5.17,1.012.341,1.527.471a4.261,4.261,0,0,0,1.531.132A1.652,1.652,0,0,0,32.6,1.9,1.453,1.453,0,0,0,31.481.5L29.053-.428l.31-.511a2.544,2.544,0,0,1,.21-.295l.275-.279c1.906-1.914,3.816-3.831,5.746-5.727l.08-.064a1.291,1.291,0,0,1,1.1-.144,3.207,3.207,0,0,0,3.433-.575c2.312-2.192,4.175-4.056,5.859-5.863a3.3,3.3,0,0,0-.154-4.677A3.358,3.358,0,0,0,41.2-18.6c-1.805,1.72-3.668,3.586-5.7,5.71a3.126,3.126,0,0,0-.61,3.56,1.1,1.1,0,0,1-.3,1.4c-2,2.029-4.042,4.115-6.072,6.212a1.145,1.145,0,0,1-1.438.29c-1.383-.52-2.824-1.052-4.265-1.585q-1.68-.62-3.358-1.246l-1.123-.42C15.959-5.564,13.5-6.483,11.1-7.429a2.8,2.8,0,0,0-.643-.228A2.653,2.653,0,0,0,7.3-5.634C6.343-2.243,5.317,1.155,4.325,4.44Q3.4,7.506,2.487,10.577a1.15,1.15,0,0,1-1.273.941c-5-.019-10,0-15-.019a1.609,1.609,0,0,0-1.447.552v.559a4.9,4.9,0,0,0,.466.648l.086.081c.677.666,1.377,1.354,2.113,1.955a9.255,9.255,0,0,0,6.187,2.43C-4.49,17.692-2.58,17.683-.682,17.683Zm13.465-5.969.25-.823c.217-.715.416-1.386.611-2.045L15.9,1.318A1.958,1.958,0,0,1,18.69-.209l6.383,1.852L24.44,2.4a3.847,3.847,0,0,1-.256.3q-4.17,4.167-8.318,8.346a1.862,1.862,0,0,1-1.609.466,2.253,2.253,0,0,0-.635.015ZM14.195,10.5l.124.008c.425.023.636.03.838-.173Q19.22,6.247,23.3,2.168L18.412.751c-.957-.276-1.265-.109-1.556.855L14.6,9.13C14.47,9.578,14.336,10.032,14.195,10.5Z" fill="#030504" stroke="#000" stroke-width="0.5"/>
    </g>
    <g id="Path_22257" data-name="Path 22257">
      <path id="Path_22673" data-name="Path 22673" d="M13.7-8.691h0a6.639,6.639,0,0,1-4.721-1.965,6.636,6.636,0,0,1-1.949-4.727,6.689,6.689,0,0,1,6.681-6.67h.011a6.694,6.694,0,0,1,6.67,6.66,6.755,6.755,0,0,1-6.688,6.7Zm.009-12.362a5.687,5.687,0,0,0-5.681,5.672,5.639,5.639,0,0,0,1.658,4.019A5.645,5.645,0,0,0,13.7-9.691a5.752,5.752,0,0,0,5.692-5.7,5.691,5.691,0,0,0-5.672-5.659Z" fill="#030504" stroke="#000" stroke-width="0.5"/>
    </g>
  </g>
</svg>
