<svg xmlns="http://www.w3.org/2000/svg" width="62.729" height="45.279" viewBox="0 0 62.729 45.279">
  <g id="Wushu" transform="translate(15.505 19.397)">
    <g id="Path_22340" data-name="Path 22340">
      <path id="Path_22757" data-name="Path 22757" d="M-7.2,25.632A3.152,3.152,0,0,1-9.334,24.8a3.156,3.156,0,0,1-1.037-2.2,3.156,3.156,0,0,1,.824-2.29l.082-.087a1.184,1.184,0,0,1,.153-.158A4.488,4.488,0,0,0-7.583,16.34c.066-1.613.233-3.2.395-4.729.069-.652.138-1.3.2-1.958a3.086,3.086,0,0,1,.96-2.166,3.022,3.022,0,0,1,2.239-.878,3.054,3.054,0,0,1,.486.048l2.036.2c.023-.391.044-.777.065-1.161.073-1.339.142-2.6.266-3.889a17.726,17.726,0,0,1,.6-3A8.786,8.786,0,0,1,7.422-7.4,6.972,6.972,0,0,1,13.074-5c1.42,1.552,2.831,3.132,4.243,4.713Q18.831,1.409,20.351,3.1a1.525,1.525,0,0,0,.637.412q4.426,1.413,8.888,2.782a2.422,2.422,0,0,1,1.876,1.967,2.385,2.385,0,0,1-3.166,2.677c-.731-.22-1.485-.467-2.24-.715-1.27-.416-2.582-.847-3.888-1.17a16.964,16.964,0,0,1-7.844-4.131,3.706,3.706,0,0,0-.329-.28c.052,1.1.111,2.385.214,3.621a.338.338,0,0,0,.165.178l2.342.938c3.875,1.557,7.883,3.167,11.854,4.666a18.4,18.4,0,0,0,3.524.626l3.077.482c1.81.284,3.619.567,5.426.866a5.475,5.475,0,0,1,1.511.515c.985.485,1.947,1.01,2.846,1.507a3.177,3.177,0,0,1-.473,5.845,3.143,3.143,0,0,1-2.423-.191,1.978,1.978,0,0,1-.187-.1,8.645,8.645,0,0,0-5.375-1.419c-1.468-.007-2.916-.068-4.317-.126-1.2-.05-2.4-.1-3.593-.119a19.033,19.033,0,0,1-4.533-.88c-1.989-.521-4.005-1.053-6.021-1.586q-3.453-.913-6.909-1.82a.708.708,0,0,0-.456.014,6.843,6.843,0,0,1-6.079.157c-1.161-.5-2.308-1.095-3.417-1.672Q.9,15.849.328,15.56c-.462-.235-.915-.487-1.394-.753l-.027-.015-.271,2.732a26.751,26.751,0,0,1-.278,2.694,4.362,4.362,0,0,1-.824,1.835c-.589.724-1.242,1.385-1.874,2.026l-.515.525a3.149,3.149,0,0,1-2.19,1.024C-7.1,25.63-7.148,25.632-7.2,25.632ZM-3.85,7.609a2.123,2.123,0,0,0-1.484.6,2.128,2.128,0,0,0-.657,1.5c-.064.694-.133,1.351-.2,2.007-.16,1.515-.326,3.084-.39,4.622a5.452,5.452,0,0,1-2.092,4.5l-.069.079a2.224,2.224,0,0,0-.627,1.637,2.16,2.16,0,0,0,.71,1.507,2.156,2.156,0,0,0,1.569.566,2.164,2.164,0,0,0,1.509-.71l.533-.543c.614-.623,1.251-1.267,1.8-1.944a3.341,3.341,0,0,0,.624-1.386c.13-.847.22-1.727.265-2.595l.424-4.264,1.356.746c.469.259.912.506,1.363.736.381.193.76.392,1.14.589,1.094.568,2.224,1.156,3.364,1.647a5.887,5.887,0,0,0,5.251-.151,1.693,1.693,0,0,1,1.148-.069c2.286.6,4.589,1.206,6.893,1.814q3.023.8,6.046,1.594a18.085,18.085,0,0,0,4.3.84c1.18.017,2.386.068,3.592.119,1.391.058,2.831.118,4.243.126A9.6,9.6,0,0,1,42.7,22.751l.09.043a2.177,2.177,0,1,0,1.99-3.873c-.9-.5-1.854-1.018-2.827-1.5A4.514,4.514,0,0,0,40.713,17c-1.793-.3-3.6-.579-5.406-.861l-3.041-.479a19.186,19.186,0,0,1-3.719-.669c-4.022-1.516-8.034-3.129-11.914-4.687l-2.385-.958a1.34,1.34,0,0,1-.738-.95c-.115-1.342-.175-2.673-.228-3.848a5.876,5.876,0,0,1,.1-.93l.151-.8.646.5c.136.106.268.2.393.293a6.755,6.755,0,0,1,.731.585,15.95,15.95,0,0,0,7.384,3.883c1.353.335,2.684.772,3.97,1.194.747.245,1.494.49,2.246.716a1.407,1.407,0,0,0,.767.07,1.386,1.386,0,0,0,1.1-1.62,1.444,1.444,0,0,0-1.136-1.177c-3.025-.925-5.993-1.854-8.955-2.8a2.54,2.54,0,0,1-1.065-.688Q18.082,2.079,16.571.38C15.162-1.2,13.753-2.775,12.325-4.336A5.946,5.946,0,0,0,7.486-6.4,7.778,7.778,0,0,0,.62-.914a16.641,16.641,0,0,0-.561,2.82C-.063,3.165-.131,4.419-.2,5.748c-.03.555-.061,1.116-.1,1.685l-.032.517-3.106-.3a2.533,2.533,0,0,0-.369-.037Z" fill="#030504" stroke="#000" stroke-width="0.5"/>
    </g>
    <g id="Path_22341" data-name="Path 22341">
      <path id="Path_22758" data-name="Path 22758" d="M13.625-6.245A6.412,6.412,0,0,1,9.066-8.132a6.413,6.413,0,0,1-1.892-4.561,6.458,6.458,0,0,1,6.448-6.454h0a6.466,6.466,0,0,1,6.451,6.411,6.368,6.368,0,0,1-1.821,4.555,6.374,6.374,0,0,1-4.513,1.935h-.117Zm0-11.9h0a5.457,5.457,0,0,0-5.448,5.454,5.417,5.417,0,0,0,1.6,3.853,5.415,5.415,0,0,0,3.852,1.6h.1a5.38,5.38,0,0,0,3.81-1.633,5.379,5.379,0,0,0,1.537-3.848A5.464,5.464,0,0,0,13.625-18.147Z" fill="#030504" stroke="#000" stroke-width="0.5"/>
    </g>
    <g id="Path_22342" data-name="Path 22342">
      <path id="Path_22759" data-name="Path 22759" d="M-1.443-1.943l-.513-.444c-.74-.642-1.538-1.233-2.309-1.8A23.8,23.8,0,0,1-7.923-7.308c-1.2-1.333-2.41-2.648-3.625-3.963q-1.419-1.536-2.829-3.082a3.365,3.365,0,0,1-.767-1.319,2.314,2.314,0,0,1,1.252-2.694,2.393,2.393,0,0,1,2.874.566l1.376,1.477c1.464,1.569,2.978,3.19,4.413,4.839A8.564,8.564,0,0,0-1.714-8.945c.813.3,1.585.671,2.4,1.058.359.17.724.343,1.1.513l.745.339-.641.509A10.43,10.43,0,0,0-1.17-2.563ZM-12.825-17.618a1.4,1.4,0,0,0-.63.151,1.313,1.313,0,0,0-.727,1.522,2.371,2.371,0,0,0,.538.913c.943,1.038,1.887,2.06,2.831,3.082C-9.6-10.631-8.377-9.312-7.179-7.976a22.626,22.626,0,0,0,3.51,2.982c.617.457,1.251.926,1.868,1.43A11.44,11.44,0,0,1,.662-6.793l-.4-.19c-.8-.378-1.553-.735-2.331-1.027a9.588,9.588,0,0,1-3.923-2.828c-1.414-1.625-2.922-3.24-4.38-4.8l-1.388-1.49A1.415,1.415,0,0,0-12.825-17.618Z" fill="#030504" stroke="#000" stroke-width="0.5"/>
    </g>
  </g>
</svg>
