<svg xmlns="http://www.w3.org/2000/svg" width="13.768" height="16.951" viewBox="0 0 13.768 16.951">
  <g id="Assessment" transform="translate(0 -0.02)">
    <path id="Path_80" data-name="Path 80" d="M92.677,47.82a1.023,1.023,0,0,1-.617-1.08c.016-4.911.009-9.822.009-14.734,0-.883.249-1.131,1.129-1.131,3.006,0,6.012,0,9.018-.006a1.04,1.04,0,0,1,.761.275c.856.777,1.739,1.527,2.593,2.307a.816.816,0,0,1,.243.534c.013,4.29.006,8.581.015,12.871a.975.975,0,0,1-.611.964ZM105.3,34.051c-.77,0-1.487.012-2.2,0-.681-.014-.967-.318-.972-1,0-.533,0-1.065,0-1.649H93.236c-.615,0-.642.029-.642.647v14.6c0,.622.024.648.638.648h11.43c.609,0,.642-.033.642-.65v-12.6Zm-.624-.537.043-.086-2.057-1.719c0,.537.009.969,0,1.4-.008.3.139.4.412.4C103.605,33.513,104.14,33.514,104.676,33.514Z" transform="translate(-92.06 -30.85)" fill="#fff"/>
    <path id="Path_81" data-name="Path 81" d="M122.011,110c.246.3.441.605.905.418.109-.043.342.108.463.227q1.451,1.422,2.876,2.871c.375.379.342.6-.128,1.061-.418.414-.636.438-1,.077-.962-.954-1.923-1.909-2.869-2.878-.124-.128-.273-.382-.224-.5.2-.492-.2-.628-.418-.875-1.79.992-3.308.8-4.32-.534a2.981,2.981,0,0,1,4.193-4.157C122.807,106.709,123,108.235,122.011,110Zm.116-1.919a2.441,2.441,0,1,0-2.441,2.441A2.441,2.441,0,0,0,122.127,108.08Zm.473,3.163c1.027,1.035,2.021,2.041,3.051,3.081l.276-.295L122.866,111Z" transform="translate(-115.647 -101.9)" fill="#fff"/>
    <path id="Path_82" data-name="Path 82" d="M195.808,356.1h-3.343a.834.834,0,0,1-.334-.018c-.094-.044-.218-.163-.214-.244s.125-.2.221-.247a.655.655,0,0,1,.291-.015h6.855c.086,0,.187-.028.25.009a1.824,1.824,0,0,1,.274.257c-.092.086-.176.227-.279.242a5.29,5.29,0,0,1-.76.015Z" transform="translate(-187.645 -341.649)" fill="#fff"/>
    <path id="Path_83" data-name="Path 83" d="M133.181,71.562c-.888,0-1.777.012-2.664-.012-.155,0-.424-.146-.435-.248-.035-.3.239-.281.449-.281q2.686,0,5.372,0c.21,0,.477-.03.471.277s-.28.261-.485.262C134.986,71.564,134.084,71.562,133.181,71.562Z" transform="translate(-128.452 -69.282)" fill="#fff"/>
    <path id="Path_84" data-name="Path 84" d="M258.68,207.422a1.56,1.56,0,0,1,.519-.214q2.031-.027,4.062,0c.152,0,.413.139.431.246.048.284-.214.266-.41.267-1.241,0-2.482.009-3.723-.006a5.385,5.385,0,0,1-.828-.133Z" transform="translate(-251.551 -199.63)" fill="#fff"/>
    <path id="Path_85" data-name="Path 85" d="M267.208,158.229c-.036-.181-.064-.318-.1-.488a2.37,2.37,0,0,1,.285-.035c1.312,0,2.625-.01,3.937.01.151,0,.412.142.428.249.043.285-.218.263-.414.263Z" transform="translate(-259.62 -152.256)" fill="#fff"/>
    <path id="Path_86" data-name="Path 86" d="M195.431,306.6h-.822c-.9,0-1.8.01-2.7-.012-.137,0-.271-.157-.407-.241.131-.091.259-.257.392-.26.971-.022,1.943-.036,2.913.006.23.01.451.239.676.368Z" transform="translate(-187.245 -294.269)" fill="#fff"/>
    <path id="Path_87" data-name="Path 87" d="M227.215,102.163c.941,0,1.88-.009,2.82.012.122,0,.241.162.361.249-.12.086-.237.243-.359.248a17.45,17.45,0,0,1-2.062-.007,2.443,2.443,0,0,1-.794-.4Z" transform="translate(-221.399 -99.09)" fill="#fff"/>
    <path id="Path_88" data-name="Path 88" d="M314.2,256.738c.756,0,1.512-.01,2.268.011.112,0,.22.154.33.236-.113.092-.222.257-.338.264a11.5,11.5,0,0,1-1.682-.005c-.223-.022-.428-.244-.64-.375Z" transform="translate(-304.638 -247.051)" fill="#fff"/>
    <path id="Path_89" data-name="Path 89" d="M130.7,259.271a7.444,7.444,0,0,1,.7-.549c.1-.063.27-.017.407-.021-.023.137,0,.324-.077.4a6.632,6.632,0,0,1-.881.72.418.418,0,0,1-.4,0,4.616,4.616,0,0,1-.388-.7c.117-.039.246-.125.348-.1S130.6,259.172,130.7,259.271Z" transform="translate(-128.434 -248.92)" fill="#fff"/>
    <path id="Path_90" data-name="Path 90" d="M131.22,358.188a7.243,7.243,0,0,1,.711-.559c.1-.06.267,0,.4.006-.021.128,0,.3-.072.371a6.92,6.92,0,0,1-.917.745.432.432,0,0,1-.419-.059c-.152-.194-.383-.529-.312-.657C130.826,357.652,131.007,358.034,131.22,358.188Z" transform="translate(-128.952 -343.602)" fill="#fff"/>
    <path id="Path_91" data-name="Path 91" d="M131.69,308.824a7.622,7.622,0,0,1,.727-.575c.1-.064.269-.023.407-.029-.03.145-.015.33-.1.428a4.387,4.387,0,0,1-.578.491c-.513.42-.662.4-.991-.18-.059-.1,0-.272,0-.41a2.724,2.724,0,0,1,.4.09C131.609,308.66,131.638,308.748,131.69,308.824Z" transform="translate(-129.458 -296.325)" fill="#fff"/>
    <path id="Path_92" data-name="Path 92" d="M193.28,256.795c-.489,0-.978.015-1.466-.011-.115-.006-.223-.148-.335-.226.112-.1.216-.26.337-.273a3.684,3.684,0,0,1,1.045,0c.183.034.333.248.5.381Z" transform="translate(-187.226 -246.585)" fill="#fff"/>
    <path id="Path_93" data-name="Path 93" d="M358.41,306.436v-.626a7.108,7.108,0,0,1,.7.124c.036.01.061.248.041.257C358.934,306.279,358.7,306.343,358.41,306.436Z" transform="translate(-347.013 -294.026)" fill="#fff"/>
    <path id="Path_94" data-name="Path 94" d="M165.633,160.835c.385-.288.727-.564,1.09-.8.108-.069.29-.026.438-.033-.043.151-.043.357-.142.443-.385.328-.8.614-1.207.923-.209.16-.38.159-.526-.077a3.808,3.808,0,0,1-.35-.575c-.043-.11.03-.267.051-.4a1.3,1.3,0,0,1,.385.139A1.639,1.639,0,0,1,165.633,160.835Z" transform="translate(-161.804 -154.451)" fill="#fff"/>
  </g>
</svg>
