<svg xmlns="http://www.w3.org/2000/svg" width="17.034" height="21.565" viewBox="0 0 17.034 21.565">
  <g id="athletes" transform="translate(0 -0.018)">
    <path id="Path_78" data-name="Path 78" d="M113.159,29.6l-2.511,1.581c.577.919,1.138,1.8,1.689,2.693.421.68.855,1.354,1.238,2.056a1.284,1.284,0,0,1-1.077,2.011.183.183,0,0,1-.055,0,2.507,2.507,0,0,0-2.411,1.1c-1.038,1.1-2.15,2.125-3.244,3.167a3.811,3.811,0,0,1-.838.6,1.256,1.256,0,0,1-1.476-.125,1.3,1.3,0,0,1-.226-1.563,9.5,9.5,0,0,1,1.054-1.381,18.841,18.841,0,0,0,1.49-1.794c-.685,0-1.37.007-2.054,0a1.359,1.359,0,0,1-1.486-1.271,1.3,1.3,0,0,1,1.324-1.376c1.324-.1,2.654-.132,3.981-.192.175-.008.35-.019.605-.034-.6-.887-1.16-1.707-1.716-2.53-.326-.482-.65-.964-.968-1.45a2.075,2.075,0,0,1,.383-2.972c.834-.7,1.753-1.3,2.638-1.937.383-.277.772-.543,1.231-.865-.643-.491-1.072-1.132-2.035-1.056-1.322.1-2.657.037-3.987.034-.724,0-1.176-.284-1.286-.773a1.156,1.156,0,0,1,.872-1.333,7.793,7.793,0,0,1,1.643-.344c1.173-.154,2.35-.264,3.525-.4a2.184,2.184,0,0,1,1.592.4c.817.578,1.679,1.092,2.489,1.677a6.009,6.009,0,0,1,2.591,4.638c.026.36.072.719.111,1.11.684.048,1.334.094,1.984.136.182.012.364.007.546.015.95.038,1.387.363,1.4,1.032a1.336,1.336,0,0,1-1.38,1.267c-1.362.094-2.726.159-4.09.212a1.058,1.058,0,0,1-1.228-.912C113.345,30.582,113.275,30.133,113.159,29.6Zm-8.839-6.469.055.224a3.539,3.539,0,0,0,.413.047c1,0,2,0,3-.011,2.014-.028,2.014-.032,3.578,1.231.057.046.113.092.168.14.588.51.585.65-.046,1.1-1.27.913-2.557,1.8-3.81,2.74-.893.667-.964,1.229-.35,2.142.973,1.45,1.957,2.892,2.925,4.344.394.591.25.87-.447.891-1.383.042-2.767.07-4.151.116a4.745,4.745,0,0,0-1.081.121.578.578,0,0,0-.355.431c.011.14.242.309.412.392a1.2,1.2,0,0,0,.486.023q3.442,0,6.884-.011c.934,0,1.074-.23.591-1.019q-1.411-2.3-2.864-4.577c-.238-.374-.2-.624.176-.857.51-.316,1-.658,1.509-.982,1.056-.678,2.116-1.348,3.169-2.029.262-.17.595-.4.4-.737a9.663,9.663,0,0,0-1.561-2.261,21.411,21.411,0,0,0-2.961-2.037,1.389,1.389,0,0,0-.813-.208q-2.066.184-4.124.45A9.183,9.183,0,0,0,104.32,23.127Zm5.41,14.966-.05-.139c-.411,0-.823-.014-1.233.009a.607.607,0,0,0-.37.178c-.924.976-1.856,1.944-2.736,2.959-.184.212-.163.6-.236.911a2.469,2.469,0,0,0,.85-.308C107.232,40.519,108.475,39.3,109.73,38.093Zm9.538-7.51-.064-.207c-.176-.021-.35-.05-.528-.061-.855-.05-1.709-.1-2.564-.129-.492-.018-.786-.184-.779-.74a7.882,7.882,0,0,0-.128-1.069c-1.186.491-1.231.568-1.019,1.707.027.143.068.284.086.428.047.385.215.569.645.537,1.234-.093,2.472-.14,3.706-.23A2.513,2.513,0,0,0,119.268,30.582Z" transform="translate(-103.25 -21.4)" fill="#fff"/>
    <path id="Path_79" data-name="Path 79" d="M348.49,24.165a2.477,2.477,0,0,1-2.477,2.516,2.506,2.506,0,1,1-.069-5.011A2.473,2.473,0,0,1,348.49,24.165Zm-2.524,1.582a1.57,1.57,0,0,0,1.627-1.55,1.611,1.611,0,0,0-1.569-1.63,1.653,1.653,0,0,0-1.642,1.631A1.592,1.592,0,0,0,345.966,25.747Z" transform="translate(-331.457 -21.639)" fill="#fff"/>
  </g>
</svg>
