<svg xmlns="http://www.w3.org/2000/svg" width="13.769" height="17.898" viewBox="0 0 13.769 17.898">
  <path id="Coaches" d="M94.46,28.407a16.63,16.63,0,0,1,2.056.014A3.422,3.422,0,0,1,99.5,31.7c.038,1.073.011,2.146.019,3.219,0,.366-.2.442-.519.44-1.422-.008-2.845,0-4.267,0h-.505c-.007.134-.017.236-.015.339,0,.257-.132.367-.371.368-.578,0-1.154.009-1.731,0-.335-.006-.365-.067-.432-.7H86.338c-.511,0-.582-.07-.578-.58.012-1.126-.052-2.26.064-3.376a3.425,3.425,0,0,1,3.43-3.051c.508-.012,1.018,0,1.53,0a1.789,1.789,0,0,0-.665-1.306,3.418,3.418,0,0,1-1.22-2.7c-.057-1.218-.033-2.442-.014-3.662A2.542,2.542,0,0,1,91.269,18.2a18.079,18.079,0,0,1,3.126.083A2.376,2.376,0,0,1,96.371,20.6c.035,1.341.047,2.683-.005,4.024a3.451,3.451,0,0,1-1.227,2.451C94.628,27.541,94.625,27.538,94.46,28.407Zm-2.793,6.337c.08-.487.069-.479-.206-.842a2.064,2.064,0,0,1-.314-.6,1.585,1.585,0,0,1,.473-1.616l-.344-.578c-.137.085-.239.147-.341.212s-.2.132-.3.2c-.387.24-.524.193-.673-.243-.225-.657-.458-1.313-.66-1.979a.371.371,0,0,0-.485-.314A2.905,2.905,0,0,0,86.4,32.207h.746c.991,0,.949-.094.942.922,0,.53,0,1.061,0,1.61Zm7.213-2.535A2.907,2.907,0,0,0,96.513,29c-.241-.039-.379-.009-.466.272-.211.69-.472,1.364-.716,2.043-.135.376-.292.435-.634.234-.226-.132-.445-.277-.683-.426l-.333.571c.914.876.363,2.019.578,3.043h3.1c.011-.116.027-.206.027-.3,0-.55,0-1.1,0-1.651,0-.531.047-.578.563-.583h.934ZM89.486,23.3c-.152,1.533.11,2.835,1.451,3.673a3.039,3.039,0,0,0,3.448-.024,3.357,3.357,0,0,0,1.381-3.6c-.121.23-.22.446-.342.648a.837.837,0,0,1-1.061.41,4.951,4.951,0,0,0-3.492.007.772.772,0,0,1-1.029-.431C89.729,23.774,89.626,23.564,89.486,23.3Zm5.324.685.83-1.737H89.63l.839,1.741a5.243,5.243,0,0,1,4.342,0Zm-.757-2.347a6.647,6.647,0,0,0-.429-2.412.614.614,0,0,0-.745-.483,2.865,2.865,0,0,1-.683,0,.41.41,0,0,0-.459.3,6.344,6.344,0,0,0-.524,2.6Zm-.432,13.808c0-.915.029-1.81-.012-2.7a.937.937,0,0,0-.873-.814.983.983,0,0,0-.971.572.9.9,0,0,0,.259,1.124.7.7,0,0,1,.276.66c-.017.383,0,.767,0,1.162ZM89.479,21.658c.319,0,.647.012.974-.01.066,0,.165-.128.178-.209.161-.882.307-1.767.454-2.627C89.915,18.978,89.342,19.92,89.479,21.658ZM94.2,18.817c.145.867.289,1.753.452,2.638a.321.321,0,0,0,.23.2c.3.024.607.009.9.009.194-1.619-.476-2.736-1.583-2.843ZM93.209,29.9l1.63,1.022.7-1.994c-.474,0-.861-.011-1.246.007a.519.519,0,0,0-.3.151C93.734,29.341,93.493,29.608,93.209,29.9Zm-2.74,1.017L92,29.916c-.556-.74-1.171-1.28-2.171-.889Zm3.5-3.111a3.93,3.93,0,0,1-2.672-.01,2.614,2.614,0,0,0,1.147,1.6.4.4,0,0,0,.347-.007,2.779,2.779,0,0,0,1.177-1.582ZM86.4,32.805v1.919H87.49V32.8Zm12.514,1.94c0-.594.012-1.143-.012-1.69a.373.373,0,0,0-.25-.25,3.506,3.506,0,0,0-.645-.012v1.952ZM93.5,30.827c-.867-.673-.977-.673-1.7-.015a2.179,2.179,0,0,0,.222.371.511.511,0,0,0,.291.178c.273.024.549.008.856.008Z" transform="translate(-85.754 -18.171)" fill="#fff"/>
</svg>
