<svg xmlns="http://www.w3.org/2000/svg" width="14.231" height="19.348" viewBox="0 0 14.231 19.348">
  <g id="Counselling" transform="translate(0.057 0.03)">
    <path id="Path_95" data-name="Path 95" d="M187.943,22.952a3.929,3.929,0,0,1,1.643.9,2.581,2.581,0,0,1,.883,2.169,27.687,27.687,0,0,1-.53,3.227,2.6,2.6,0,0,1-1.477,1.78,2.494,2.494,0,0,1-2.866-.444,3.2,3.2,0,0,1-.7-1,8.651,8.651,0,0,1-.646-4.013,2.865,2.865,0,0,1,2.123-2.49l.378-.136Zm-3.133,3.459c.093.543.215,1.469.427,2.373a3.09,3.09,0,0,0,.579,1.153,1.941,1.941,0,0,0,3.116-.048,2.68,2.68,0,0,0,.5-1.027,19.207,19.207,0,0,0,.43-2.869,2.383,2.383,0,0,0-2.535-2.444A2.552,2.552,0,0,0,184.809,26.412Z" transform="translate(-180.281 -22.89)" fill="#fff"/>
    <path id="Path_96" data-name="Path 96" d="M185.369,29.49a2.535,2.535,0,0,1-1.791-.733,3.338,3.338,0,0,1-.724-1.024,8.71,8.71,0,0,1-.654-4.055,2.93,2.93,0,0,1,2.181-2.567c.086-.033.172-.063.259-.094l.12-.043.015-.005H186l.014,0a4.026,4.026,0,0,1,1.679.923,2.666,2.666,0,0,1,.911,2.244,27.452,27.452,0,0,1-.532,3.238,2.676,2.676,0,0,1-1.526,1.841A2.738,2.738,0,0,1,185.369,29.49Zm-.56-8.338-.106.038-.256.091a2.764,2.764,0,0,0-2.064,2.411,8.531,8.531,0,0,0,.64,3.972,3.123,3.123,0,0,0,.683.965,2.414,2.414,0,0,0,2.761.427,2.5,2.5,0,0,0,1.427-1.72,27.242,27.242,0,0,0,.528-3.214,2.494,2.494,0,0,0-.856-2.095,3.826,3.826,0,0,0-1.592-.874ZM185.4,28.9a2.037,2.037,0,0,1-1.608-.794,3.154,3.154,0,0,1-.6-1.187c-.158-.675-.264-1.35-.349-1.892-.029-.187-.054-.348-.078-.486v-.015a3.037,3.037,0,0,1,.8-2.229,2.5,2.5,0,0,1,1.811-.724h.006a2.723,2.723,0,0,1,1.974.8A2.327,2.327,0,0,1,188,24.107a19.161,19.161,0,0,1-.431,2.883,2.841,2.841,0,0,1-.52,1.062,2.052,2.052,0,0,1-1.626.844Zm-2.452-4.384c.024.139.049.3.077.482.085.539.19,1.21.347,1.879a2.95,2.95,0,0,0,.561,1.117,1.851,1.851,0,0,0,2.972-.045,2.592,2.592,0,0,0,.487-.99,19.152,19.152,0,0,0,.428-2.856,2.147,2.147,0,0,0-.591-1.6,2.545,2.545,0,0,0-1.843-.746h-.009a2.318,2.318,0,0,0-1.681.67A2.872,2.872,0,0,0,182.945,24.514Z" transform="translate(-178.326 -21)" fill="#fff"/>
    <path id="Path_97" data-name="Path 97" d="M138.935,262.889c.045-.473.118-.936.6-1.094a6.181,6.181,0,0,1,1.26-.153c.005-.1.006-.208.017-.317a.9.9,0,0,1,.935-.83c.572-.009,1.144,0,1.717,0,.923,0,1.177.23,1.252,1.2.261,0,.528,0,.8,0a.9.9,0,0,1,.971.98c.007.656,0,1.313,0,2.007h.7a.314.314,0,0,1,.347.348c0,.759,0,1.518,0,2.277a.326.326,0,0,1-.374.362h-.672a5.042,5.042,0,0,1-.014.837c-.023.131-.187.237-.288.354-.1-.12-.2-.235-.29-.362-.029-.045-.01-.122,0-.184a.843.843,0,0,0-.437-.923,1.517,1.517,0,0,1,.174-2.556.422.422,0,0,0,.265-.456c-.016-.56-.009-1.12,0-1.679,0-.28-.119-.407-.4-.407q-2.725.005-5.45,0c-.333,0-.424.168-.422.469.006,1.43,0,2.861,0,4.292,0,.087.031.193-.008.257a2.768,2.768,0,0,1-.3.356c-.1-.12-.277-.237-.282-.362a16.852,16.852,0,0,1,0-2.128,2.538,2.538,0,0,0-.669-2.075,6.689,6.689,0,0,1-.609-.847c-.13-.194-.4-.415-.1-.634.326-.237.447.113.593.306C138.482,262.238,138.7,262.566,138.935,262.889Zm7.967,4.175v-1.782c-.481.022-.988-.161-1.306.346a.97.97,0,0,0-.019,1.056c.309.542.832.35,1.322.381Zm-2.843-5.394c.06-.5,0-.575-.468-.577q-.84,0-1.68,0c-.467,0-.527.074-.482.577Z" transform="translate(-135.681 -249.678)" fill="#fff"/>
    <path id="Path_98" data-name="Path 98" d="M144.224,267.173l-.068-.084-.083-.1a3.021,3.021,0,0,1-.212-.272.293.293,0,0,1-.024-.2c0-.013,0-.026,0-.038a.755.755,0,0,0-.4-.839,1.468,1.468,0,0,1-.662-1.326,1.629,1.629,0,0,1,.842-1.387.334.334,0,0,0,.217-.373c-.014-.512-.01-1.033,0-1.539v-.145a.337.337,0,0,0-.069-.245.334.334,0,0,0-.242-.071h0c-2.1,0-3.828,0-5.45,0h0a.345.345,0,0,0-.25.073.441.441,0,0,0-.079.306c0,1.06,0,2.138,0,3.18v1.113c0,.022,0,.048.005.075a.363.363,0,0,1-.026.229,1.7,1.7,0,0,1-.215.269l-.091.1-.07.081-.068-.083a1.281,1.281,0,0,0-.1-.105.5.5,0,0,1-.2-.309l-.006-.141a16.056,16.056,0,0,1,0-2,2.451,2.451,0,0,0-.644-2.006,4.925,4.925,0,0,1-.5-.675c-.04-.061-.08-.122-.121-.181-.02-.031-.045-.063-.072-.1a.577.577,0,0,1-.176-.41.384.384,0,0,1,.173-.251.4.4,0,0,1,.309-.091c.158.029.253.177.336.307.025.039.049.077.073.109.17.223.334.456.492.681l.067.094a1,1,0,0,1,.631-.934,3.5,3.5,0,0,1,.879-.127c.106-.006.215-.012.322-.022v-.015c0-.074.005-.151.013-.226a.987.987,0,0,1,1.024-.912c.383-.006.773,0,1.149,0h.569c.946,0,1.245.26,1.334,1.2h.717a.987.987,0,0,1,1.061,1.07c0,.453,0,.9,0,1.376v.543h.609a.4.4,0,0,1,.436.439v2.275a.45.45,0,0,1-.118.333.471.471,0,0,1-.343.119h-.584c0,.057,0,.113,0,.168a2.892,2.892,0,0,1-.02.593.582.582,0,0,1-.209.3c-.037.035-.072.068-.1.1Zm-.7-6.8a.437.437,0,0,1,.493.5v.145c0,.5-.01,1.021,0,1.53a.511.511,0,0,1-.314.539,1.451,1.451,0,0,0-.746,1.233,1.292,1.292,0,0,0,.578,1.166.926.926,0,0,1,.479,1.007.406.406,0,0,1,0,.045.285.285,0,0,0,0,.083,2.9,2.9,0,0,0,.2.253l.019.023.04-.038c.071-.067.144-.136.154-.2a2.766,2.766,0,0,0,.018-.556c0-.086-.006-.174-.006-.265v-.091h.763a.3.3,0,0,0,.219-.066.279.279,0,0,0,.064-.2v-.15c0-.7,0-1.417,0-2.128,0-.177-.08-.256-.258-.258h-.788v-.724c0-.474,0-.92,0-1.374a.807.807,0,0,0-.883-.89c-.181,0-.368,0-.548,0h-.33l-.007-.084c-.072-.914-.278-1.112-1.16-1.112h-.571c-.376,0-.764,0-1.146,0a.813.813,0,0,0-.847.749c-.007.072-.01.145-.012.216,0,.033,0,.065,0,.1l0,.077-.076.008c-.136.015-.275.023-.407.03a3.242,3.242,0,0,0-.832.118c-.421.14-.491.543-.534,1.016l-.022.243-.142-.2-.2-.289c-.158-.224-.32-.455-.488-.676-.029-.037-.056-.079-.082-.12-.067-.1-.136-.212-.217-.226a.233.233,0,0,0-.169.06.212.212,0,0,0-.1.129c-.011.079.065.178.139.272.028.035.056.072.081.108l.122.185a4.705,4.705,0,0,0,.479.651,2.608,2.608,0,0,1,.692,2.144,15.866,15.866,0,0,0,0,1.974l.005.141c0,.048.081.124.145.185l.045.045.025-.028a1.53,1.53,0,0,0,.192-.238.3.3,0,0,0,0-.117.907.907,0,0,1-.006-.093v-1.113c0-1.041,0-2.119,0-3.179a.608.608,0,0,1,.132-.435.51.51,0,0,1,.378-.126h0c1.622,0,3.353,0,5.449,0Zm.857,4.969a.854.854,0,0,1-.84-.436,1.066,1.066,0,0,1,.02-1.149.992.992,0,0,1,1.052-.395c.108.005.22.011.326.006l.1,0v1.973l-.1-.006a3.289,3.289,0,0,0-.334,0C144.535,265.337,144.461,265.341,144.386,265.341Zm-.009-1.807a.683.683,0,0,0-.657.317.878.878,0,0,0-.017.963c.211.368.531.354.9.338.084,0,.17-.007.257-.006V263.55h0c-.084,0-.167,0-.249-.009s-.157-.007-.233-.007Zm-2.191-3.6h-2.792l-.007-.082c-.025-.275-.02-.445.077-.551s.246-.123.495-.124h1.68c.241,0,.4.022.492.128s.1.278.065.55Zm-2.626-.181h2.465c.016-.162.014-.279-.03-.329s-.144-.066-.357-.067h-1.679c-.181,0-.313.012-.362.065s-.049.167-.037.331Z" transform="translate(-133.73 -247.855)" fill="#fff"/>
    <path id="Path_99" data-name="Path 99" d="M103.233,202.547c-.128.039-.26.068-.383.118-.953.391-1.914.765-2.852,1.19a4.509,4.509,0,0,0-1.041.7,1.322,1.322,0,0,0-.436,1.069c.008,1.579,0,3.157,0,4.736,0,.074.028.167-.006.22a3.553,3.553,0,0,1-.293.359c-.1-.119-.276-.232-.284-.357-.033-.52-.016-1.041-.016-1.565,0-1.081.025-2.163-.006-3.243a2.286,2.286,0,0,1,1.072-2.046,4.843,4.843,0,0,1,.849-.459c.741-.32,1.5-.592,2.232-.938C102.529,202.11,102.9,202.081,103.233,202.547Z" transform="translate(-97.879 -194.003)" fill="#fff"/>
    <path id="Path_100" data-name="Path 100" d="M96.252,209.2l-.069-.082a1.275,1.275,0,0,0-.1-.1.515.515,0,0,1-.2-.306c-.025-.392-.022-.791-.019-1.177v-.394c0-.334,0-.674,0-1,.005-.734.011-1.494-.01-2.238a2.367,2.367,0,0,1,1.111-2.123,4.882,4.882,0,0,1,.866-.467c.294-.127.6-.248.887-.365.444-.178.905-.362,1.341-.571a.9.9,0,0,1,1.277.247l.073.1-.12.037-.124.035a2.4,2.4,0,0,0-.251.08c-.238.1-.476.194-.714.29-.7.285-1.433.58-2.136.9a4.4,4.4,0,0,0-1.021.684,1.237,1.237,0,0,0-.4,1c.006,1.151,0,2.321,0,3.453v1.283a.319.319,0,0,0,0,.063.308.308,0,0,1-.025.206,2.231,2.231,0,0,1-.214.269c-.029.033-.058.066-.086.1Zm4.4-8.811a1.226,1.226,0,0,0-.51.144c-.443.211-.905.4-1.352.575-.291.117-.591.237-.883.362a4.7,4.7,0,0,0-.833.45,2.2,2.2,0,0,0-1.034,1.969c.021.748.016,1.509.01,2.245,0,.328,0,.668,0,1v.4c0,.383-.006.779.018,1.164,0,.05.083.125.147.186l.045.042.023-.026a1.98,1.98,0,0,0,.2-.246.317.317,0,0,0,0-.091.714.714,0,0,1-.006-.082V207.2c0-1.132,0-2.3,0-3.451a1.413,1.413,0,0,1,.468-1.138A4.55,4.55,0,0,1,98,201.9c.706-.32,1.436-.616,2.143-.9l.713-.29a2.321,2.321,0,0,1,.262-.085A.609.609,0,0,0,100.649,200.394Z" transform="translate(-95.91 -192.13)" fill="#fff"/>
    <path id="Path_101" data-name="Path 101" d="M291.71,202.61a.784.784,0,0,1,1.1-.191c.78.381,1.62.637,2.4,1.018a5.421,5.421,0,0,1,1.261.9,1.727,1.727,0,0,1,.516,1.318q0,2.463,0,4.925c0,.229-.023.458-.31.453s-.29-.249-.29-.471c0-1.579-.014-3.159.006-4.738a1.675,1.675,0,0,0-.687-1.413,1.476,1.476,0,0,0-.3-.214Q293.559,203.4,291.71,202.61Z" transform="translate(-282.901 -194.102)" fill="#fff"/>
    <path id="Path_102" data-name="Path 102" d="M293.627,209.237h-.016c-.379-.01-.379-.354-.379-.559q0-.76,0-1.519c0-1.056-.005-2.147.008-3.221a1.578,1.578,0,0,0-.653-1.341l-.058-.045a1.02,1.02,0,0,0-.226-.155c-.966-.418-1.95-.839-2.9-1.245l-.9-.385.074-.093a.869.869,0,0,1,1.211-.216c.387.189.8.351,1.2.507s.812.319,1.205.511a5.44,5.44,0,0,1,1.283.913,1.81,1.81,0,0,1,.543,1.385c0,1.785,0,3.569,0,4.924a.609.609,0,0,1-.123.447A.362.362,0,0,1,293.627,209.237Zm-4.833-8.543.679.289c.951.407,1.936.828,2.9,1.245a1.163,1.163,0,0,1,.269.181l.055.045a1.771,1.771,0,0,1,.721,1.486c-.014,1.072-.011,2.163-.008,3.218q0,.759,0,1.519c0,.28.029.373.2.378a.2.2,0,0,0,.148-.043.481.481,0,0,0,.068-.317c0-1.355,0-3.139,0-4.925a1.645,1.645,0,0,0-.487-1.252,5.369,5.369,0,0,0-1.242-.884c-.386-.188-.8-.349-1.191-.5s-.815-.32-1.209-.512A.7.7,0,0,0,288.794,200.694Z" transform="translate(-279.837 -192.221)" fill="#fff"/>
    <path id="Path_103" data-name="Path 103" d="M231.164,340.111a2.968,2.968,0,0,1-.666-.014c-.132-.031-.233-.192-.348-.295.109-.1.212-.267.326-.275a10.053,10.053,0,0,1,1.411,0c.122.009.231.191.346.294-.121.1-.23.249-.365.276a3.642,3.642,0,0,1-.7.013Z" transform="translate(-224.128 -325.113)" fill="#fff"/>
    <path id="Path_104" data-name="Path 104" d="M227.89,338.307a1.242,1.242,0,0,1-.286-.029.624.624,0,0,1-.29-.215c-.034-.037-.066-.072-.1-.1l-.076-.068.077-.067a1.177,1.177,0,0,0,.094-.1.472.472,0,0,1,.287-.2,10.088,10.088,0,0,1,1.423,0,.5.5,0,0,1,.3.211,1.262,1.262,0,0,0,.1.1l.08.072-.084.067c-.034.027-.068.06-.1.095a.659.659,0,0,1-.3.2,2.161,2.161,0,0,1-.515.02l-.154-.005h-.053c-.064,0-.131,0-.2.006S227.958,338.307,227.89,338.307Zm-.485-.412.043.045a.519.519,0,0,0,.2.161,1.6,1.6,0,0,0,.441.018l.114,0v0h.091c.072,0,.144,0,.214.006a1.971,1.971,0,0,0,.471-.017.535.535,0,0,0,.21-.152l.041-.04-.043-.048c-.058-.066-.131-.148-.177-.151a9.93,9.93,0,0,0-1.4,0c-.042,0-.112.081-.163.139Z" transform="translate(-221.254 -323.206)" fill="#fff"/>
  </g>
</svg>
