<svg xmlns="http://www.w3.org/2000/svg" width="18.677" height="9.935" viewBox="0 0 18.677 9.935">
  <g id="Home" transform="translate(0 0.042)">
    <path id="Path_18" data-name="Path 18" d="M228.772,20.92a2.236,2.236,0,0,0-.245-.14c-.48-.2-.961-.393-1.445-.582a.148.148,0,0,1-.118-.164c0-.746,0-1.492,0-2.238v-.143c.285.029.555.048.823.085a9.565,9.565,0,0,1,3.178,1.043.214.214,0,0,0,.288-.045q.888-.79,1.786-1.57a.4.4,0,0,1,.689.2.3.3,0,0,1-.075.31c-.262.3-.521.607-.787.906q-2.611,2.94-5.226,5.878c-.654.734-1.316,1.459-1.978,2.187a.958.958,0,0,1-1.029.279,1.029,1.029,0,0,1-.773-.736,1.553,1.553,0,0,1-.015-.6.7.7,0,0,1,.195-.36c.376-.376.761-.744,1.155-1.1q1.712-1.547,3.434-3.083C228.668,21.01,228.709,20.975,228.772,20.92Zm-4.409,4.944a.571.571,0,0,0,.549.568.579.579,0,0,0,.569-.563.56.56,0,0,0-.584-.564A.541.541,0,0,0,224.363,25.864Z" transform="translate(-217.15 -17.08)" fill="#fff"/>
    <path id="Path_19" data-name="Path 19" d="M436.352,116.917h-3.7a6.834,6.834,0,0,0-1.578-3.73l2.248-2.317a9.587,9.587,0,0,1,2.121,2.822A9.213,9.213,0,0,1,436.352,116.917Z" transform="translate(-417.675 -107.869)" fill="#fff"/>
    <path id="Path_20" data-name="Path 20" d="M139.278,38.635c-.267,0-.523,0-.778,0a6.161,6.161,0,0,0-2.921.7.154.154,0,0,1-.216-.035c-.358-.366-.724-.726-1.086-1.088-.03-.03-.057-.06-.086-.091a9.552,9.552,0,0,1,5.089-1.829Z" transform="translate(-130.424 -35.704)" fill="#fff"/>
    <path id="Path_21" data-name="Path 21" d="M18.07,117.2A9.432,9.432,0,0,1,21.1,111.15l1.142,1.2c-.084.068-.2.155-.3.248a6.783,6.783,0,0,0-2.383,4.172c-.02.122-.037.246-.065.366a.112.112,0,0,1-.08.068C18.973,117.2,18.539,117.2,18.07,117.2Z" transform="translate(-18.07 -108.14)" fill="#fff"/>
  </g>
</svg>
