<svg xmlns="http://www.w3.org/2000/svg" width="13.518" height="14.833" viewBox="0 0 13.518 14.833">
  <g id="Insurance" transform="translate(-0.004 0.004)">
    <path id="Path_33" data-name="Path 33" d="M66.85,319.92a6.23,6.23,0,0,0,2.24.939c.789.185,1.591.313,2.412.471a9.726,9.726,0,0,1-.351,3.884,8.6,8.6,0,0,1-4.095,5.13.352.352,0,0,1-.408,0,8.838,8.838,0,0,1-4.319-6.088,11.587,11.587,0,0,1-.184-2.738c.007-.189.079-.244.268-.267a12.068,12.068,0,0,0,3.743-.945C66.391,320.2,66.61,320.055,66.85,319.92ZM63,322.036a.278.278,0,0,0-.028.07c0,.063-.007.127-.006.19a9.793,9.793,0,0,0,.372,2.549,7.9,7.9,0,0,0,3.336,4.516c.1.066.177.121.313.032a7.909,7.909,0,0,0,3.7-6.393c.025-.32,0-.643,0-.959a12.017,12.017,0,0,1-3.419-.921.8.8,0,0,0-.885.009,2.014,2.014,0,0,1-.412.176A13.99,13.99,0,0,1,63,322.036Z" transform="translate(-62.13 -315.581)" fill="#fff"/>
    <path id="Path_34" data-name="Path 34" d="M426.711,207.675l.288-.842a5.891,5.891,0,0,1,.65,0,1.067,1.067,0,0,1,1,1.117q.006,4.871,0,9.742a1.048,1.048,0,0,1-1.079,1.106c-2.059.006-4.117,0-6.176,0-.03,0-.06-.006-.118-.012.31-.274.6-.538.9-.784a.463.463,0,0,1,.271-.046q2.459,0,4.917,0c.4,0,.449-.044.449-.449V208.1c0-.363-.064-.425-.428-.426Z" transform="translate(-415.132 -204.42)" fill="#fff"/>
    <path id="Path_35" data-name="Path 35" d="M378.8,67.921c.034-.349.058-.665.1-.979A.99.99,0,0,1,379.912,66a1.036,1.036,0,0,1,.987,1.046c.015.283.044.565.068.862.074.006.134.015.195.016.428,0,.855,0,1.283,0,.475,0,.58.143.455.617a1.446,1.446,0,0,1-1.536,1.2q-1.485,0-2.97,0a1.5,1.5,0,0,1-1.565-1.32c-.06-.338.068-.493.412-.494Zm1.1-1.412a.421.421,0,0,0-.424.414.412.412,0,0,0,.4.429.416.416,0,0,0,.43-.407A.435.435,0,0,0,379.9,66.509Z" transform="translate(-371.427 -66)" fill="#fff"/>
    <path id="Path_36" data-name="Path 36" d="M264.226,206.915c-.269,0-.512,0-.755,0-.216,0-.324.1-.314.318a.7.7,0,0,0,0,.118c.1.44-.115.675-.513.8-.1.031-.2.081-.327.132,0-.456-.034-.89.009-1.317a1.075,1.075,0,0,1,1.048-.895h.047c.158,0,.347-.047.464.023.095.057.1.261.151.4S264.155,206.754,264.226,206.915Z" transform="translate(-258.877 -203.66)" fill="#fff"/>
    <path id="Path_37" data-name="Path 37" d="M510.613,362.181a1.141,1.141,0,0,1-.292.082c-.831.007-1.664.032-2.494-.006a8.719,8.719,0,0,1-1.557-.266c.06,0,.12-.008.179-.008,1.275,0,2.549,0,3.824,0a1.618,1.618,0,0,1,.339.073Z" transform="translate(-498.668 -356.923)" fill="#fff"/>
    <path id="Path_38" data-name="Path 38" d="M547.93,754.242a.334.334,0,0,1,.393-.286c.95.01,1.9,0,2.849.011a.675.675,0,0,1,.355.127c-.03.216-.221.145-.356.146C550.1,754.245,549.02,754.242,547.93,754.242Z" transform="translate(-539.615 -742.191)" fill="#fff"/>
    <path id="Path_39" data-name="Path 39" d="M575,706.455c.025-.218.134-.283.347-.279.822.013,1.645.005,2.468.005a.355.355,0,0,1,.141,0,1.5,1.5,0,0,1,.2.134c-.065.048-.127.1-.2.142-.023.014-.062,0-.094,0h-2.776A.764.764,0,0,1,575,706.455Z" transform="translate(-566.222 -695.228)" fill="#fff"/>
    <path id="Path_40" data-name="Path 40" d="M618.69,582.287c-.017-.2.033-.286.231-.282.616.011,1.232,0,1.848,0,.039,0,.087-.012.117.006a2.355,2.355,0,0,1,.209.152c-.07.04-.14.114-.211.115C620.158,582.29,619.433,582.287,618.69,582.287Z" transform="translate(-609.162 -573.181)" fill="#fff"/>
    <path id="Path_41" data-name="Path 41" d="M629.209,534.16a.688.688,0,0,1-.226.092c-.677.007-1.353,0-2.036,0-.046-.214.014-.294.233-.289.575.013,1.151,0,1.726.008a1.293,1.293,0,0,1,.308.082C629.212,534.092,629.21,534.126,629.209,534.16Z" transform="translate(-617.267 -525.966)" fill="#fff"/>
    <path id="Path_42" data-name="Path 42" d="M630.222,410.2l-.032-.278h1.577a2.1,2.1,0,0,1,.4.008.778.778,0,0,1,.232.148c-.078.04-.155.114-.234.116-.418.012-.836.006-1.254.006Z" transform="translate(-620.468 -404.033)" fill="#fff"/>
    <path id="Path_43" data-name="Path 43" d="M221.476,472.839H222.9v1.213h-1.4v1.431H220.26v-1.419h-1.42v-1.226h1.416V471.41h1.22Z" transform="translate(-216.155 -464.479)" fill="#fff"/>
  </g>
</svg>
