<svg xmlns="http://www.w3.org/2000/svg" width="12.455" height="16" viewBox="0 0 12.455 16">
  <g id="Report" transform="translate(0.04 0.003)">
    <path id="Path_105" data-name="Path 105" d="M115.275,34.606v6.9c0,.772-.314,1.092-1.082,1.092H103.9c-.749,0-1.074-.321-1.074-1.062q0-5.4-.005-10.8a.775.775,0,0,1,.321-.679c1.358-1.068,2.7-2.158,4.057-3.225a1.094,1.094,0,0,1,.622-.22c2.129-.015,4.258-.01,6.387-.008.734,0,1.067.336,1.067,1.074Zm-11.826-3.858c-.009.149-.021.256-.021.363v10.4c0,.434.054.487.482.487h10.255c.464,0,.519-.057.519-.53V27.747c0-.49-.059-.551-.541-.551q-2.974,0-5.949,0c-.1,0-.208.017-.333.028,0,.874,0,1.713,0,2.551a.879.879,0,0,1-.973.972c-.924,0-1.849,0-2.773,0Zm.535-.6c1.077,0,2.043.007,3.01,0,.236,0,.274-.2.273-.4,0-.547,0-1.094,0-1.642v-.583Z" transform="translate(-102.86 -26.6)" fill="#fff"/>
    <path id="Path_106" data-name="Path 106" d="M170.553,289.963h3.066c.212,0,.452-.006.461.284.009.312-.237.317-.466.317-2.056,0-4.112,0-6.168-.008a.573.573,0,0,1-.421-.2c-.132-.19.07-.393.39-.394C168.46,289.958,169.506,289.963,170.553,289.963Z" transform="translate(-164.352 -279.001)" fill="#fff"/>
    <path id="Path_107" data-name="Path 107" d="M170.884,205.263h-3.1c-.208,0-.416-.02-.433-.276s.167-.318.387-.317c.571,0,1.141,0,1.712,0h4.552c.2,0,.416.006.431.271.015.284-.193.322-.421.322Q172.45,205.261,170.884,205.263Z" transform="translate(-164.708 -197.26)" fill="#fff"/>
    <path id="Path_108" data-name="Path 108" d="M170.89,247.8h-3.066c-.22,0-.449-.01-.445-.3s.23-.3.451-.3q3.1,0,6.2,0c.229,0,.437.039.425.321s-.227.271-.431.271Z" transform="translate(-164.731 -238.029)" fill="#fff"/>
    <path id="Path_109" data-name="Path 109" d="M212.637,162.411H210.45c-.224,0-.45-.03-.45-.3s.226-.3.45-.3q2.206,0,4.413,0c.216,0,.445.008.445.3s-.232.3-.446.3Q213.749,162.411,212.637,162.411Z" transform="translate(-205.578 -156.184)" fill="#fff"/>
    <path id="Path_110" data-name="Path 110" d="M170.042,339.9c.729,0,1.459,0,2.189,0,.225,0,.443.025.434.309-.007.256-.212.285-.424.285q-2.226,0-4.451,0c-.224,0-.442-.027-.435-.311.007-.258.214-.283.424-.282C168.534,339.9,169.288,339.9,170.042,339.9Z" transform="translate(-164.709 -326.861)" fill="#fff"/>
  </g>
</svg>
