<svg xmlns="http://www.w3.org/2000/svg" width="33.337" height="23.497" viewBox="0 0 33.337 23.497">
  <g id="Group_54" data-name="Group 54" transform="translate(0)">
    <path id="Path_5880" data-name="Path 5880" d="M878.877,191.45a2.386,2.386,0,0,0,1.163,1.189,11.7,11.7,0,0,0,2.976,1.128,34.243,34.243,0,0,0,4.942.863,54.826,54.826,0,0,0,7.66.3q2.077-.064,4.151-.247a30.732,30.732,0,0,0,6.522-1.207,9.149,9.149,0,0,0,2.126-.925,2.484,2.484,0,0,0,.915-.868,1,1,0,0,1,.142-.225c-.031.324-.052.65-.094.973a50.978,50.978,0,0,1-1.438,6.519,12.609,12.609,0,0,0-.388,1.631,1.4,1.4,0,0,1-.789,1.081,8.034,8.034,0,0,1-2.041.792,28.646,28.646,0,0,1-4.156.751,55.9,55.9,0,0,1-6.641.348,54.274,54.274,0,0,1-5.665-.289,26.837,26.837,0,0,1-5.271-.989,5.591,5.591,0,0,1-1.73-.81,1.25,1.25,0,0,1-.486-.809c-.16-.8-.376-1.591-.584-2.382-.439-1.679-.873-3.359-1.145-5.075-.091-.577-.144-1.16-.215-1.74Zm17.806,11.8c0-.536,0-1.046,0-1.557a2.524,2.524,0,0,0-4.962-.63,10.8,10.8,0,0,0-.1,2.186A50.664,50.664,0,0,0,896.683,203.246Zm5.918-8.659-.888,8.218c.188-.03.345-.064.5-.076.115-.009.14-.068.152-.165q.2-1.584.407-3.168.311-2.408.621-4.816a.782.782,0,0,0-.005-.129Zm-17.681-.134a1.317,1.317,0,0,0,0,.157c.092.708.188,1.415.279,2.123q.375,2.92.75,5.841c.006.049.035.129.066.136.188.039.379.061.582.091-.076-.712-.147-1.392-.22-2.071q-.177-1.643-.357-3.286c-.1-.918-.2-1.836-.3-2.753a.169.169,0,0,0-.1-.116C885.389,194.527,885.159,194.493,884.92,194.453Zm8.887,4.483h.7v-3.714h-.7Z" transform="translate(-878.831 -181.43)" fill="#fff"/>
    <path id="Path_5881" data-name="Path 5881" d="M896.005,158.619c1.474.074,3.051.122,4.624.24A32.787,32.787,0,0,1,907.371,160a9.7,9.7,0,0,1,2.239.894,4.851,4.851,0,0,1,.942.7,1.113,1.113,0,0,1,0,1.7,4.447,4.447,0,0,1-1.459.955,17.893,17.893,0,0,1-3.9,1.152,43.545,43.545,0,0,1-5.789.7,57.708,57.708,0,0,1-6.671.023,40.735,40.735,0,0,1-7.2-.955,12.834,12.834,0,0,1-3.3-1.155,4.827,4.827,0,0,1-1.007-.738,1.1,1.1,0,0,1-.012-1.686,4.685,4.685,0,0,1,1.639-1.045,18.046,18.046,0,0,1,3.66-1.067,38.217,38.217,0,0,1,5.272-.672C893.154,158.732,894.527,158.685,896.005,158.619Zm-.113.552,0,.045a54.8,54.8,0,0,0-8.6.63,18.634,18.634,0,0,0-3.508.855,9.637,9.637,0,0,0-1.167.546,1.953,1.953,0,0,0-.485.393.739.739,0,0,0,.006,1.117,3.034,3.034,0,0,0,1.026.677,15.852,15.852,0,0,0,3.723,1.037,47.439,47.439,0,0,0,6.724.661,61.1,61.1,0,0,0,8.2-.244,34.747,34.747,0,0,0,4.34-.672,10.628,10.628,0,0,0,2.752-.931,3.167,3.167,0,0,0,.774-.585.69.69,0,0,0-.031-1.052,2.721,2.721,0,0,0-.771-.559,15.186,15.186,0,0,0-1.934-.713,30.838,30.838,0,0,0-6.138-.96C899.168,159.3,897.529,159.249,895.892,159.171Z" transform="translate(-880.562 -152.946)" fill="#fff"/>
    <path id="Path_5882" data-name="Path 5882" d="M916.368,263.844a.86.86,0,0,1,.173,1.374,3.156,3.156,0,0,1-1.063.721,14.172,14.172,0,0,1-3.151.961,39.954,39.954,0,0,1-5.1.674,60.337,60.337,0,0,1-7.334.093,42.25,42.25,0,0,1-6.6-.767,14.613,14.613,0,0,1-3.085-.929,3.369,3.369,0,0,1-1.107-.723.862.862,0,0,1,.133-1.4,3.258,3.258,0,0,0,1.935,1.346,17.388,17.388,0,0,0,3.329.815,52.162,52.162,0,0,0,8.69.613,53.832,53.832,0,0,0,5.994-.345,26.342,26.342,0,0,0,4.849-.936,6.355,6.355,0,0,0,1.661-.746A1.736,1.736,0,0,0,916.368,263.844Z" transform="translate(-887.482 -244.239)" fill="#fff"/>
    <path id="Path_5883" data-name="Path 5883" d="M992.171,117.685v3.534H991.8v-5.435c.053,0,.1-.012.149-.012.746,0,1.491,0,2.237,0a.285.285,0,0,1,.182.056c.3.289.6.586.929.917-.322.309-.628.609-.944.9a.311.311,0,0,1-.19.037c-.592,0-1.183,0-1.775,0Z" transform="translate(-976.842 -115.771)" fill="#fff"/>
    <path id="Path_5884" data-name="Path 5884" d="M1048.584,126.914v-5.108h.206c.7,0,1.392.006,2.088,0a.5.5,0,0,1,.4.169c.257.264.529.513.817.788-.335.328-.635.627-.944.917a.3.3,0,0,1-.186.046c-.659,0-1.317,0-2,0v3.23Z" transform="translate(-1026.109 -121.003)" fill="#fff"/>
    <path id="Path_5885" data-name="Path 5885" d="M937.352,121.828h.2c.715,0,1.43,0,2.145,0a.444.444,0,0,1,.268.113c.29.265.568.543.871.835-.332.326-.631.626-.939.917a.3.3,0,0,1-.187.046c-.592,0-1.183,0-1.775,0h-.224v2.929c0,.263,0,.263-.253.3-.03,0-.06.012-.108.021Z" transform="translate(-929.604 -121.025)" fill="#fff"/>
    <path id="Path_5886" data-name="Path 5886" d="M882.1,147.561V142.6c.064,0,.13-.009.2-.009.721,0,1.442,0,2.163,0a.449.449,0,0,1,.27.112c.292.264.572.541.9.85-.337.319-.638.61-.947.892a.324.324,0,0,1-.2.056c-.6,0-1.2,0-1.793,0h-.219v.222c0,.721-.006,1.442,0,2.162a.5.5,0,0,1-.206.49A1.05,1.05,0,0,0,882.1,147.561Z" transform="translate(-881.664 -139.036)" fill="#fff"/>
    <path id="Path_5887" data-name="Path 5887" d="M1104.465,144.508v3c-.126-.11-.231-.192-.323-.287a.227.227,0,0,1-.052-.146q0-2.2,0-4.4a.567.567,0,0,1,.014-.075c.056,0,.114-.009.173-.009.733,0,1.466,0,2.2,0a.314.314,0,0,1,.2.063c.3.287.6.582.928.9-.324.313-.627.61-.937.9a.3.3,0,0,1-.186.048c-.6,0-1.2,0-1.793,0Z" transform="translate(-1074.265 -139.039)" fill="#fff"/>
    <path id="Path_5888" data-name="Path 5888" d="M985.655,260.612H982.49a12.2,12.2,0,0,1,.1-1.618,1.509,1.509,0,0,1,1.672-1.168,1.549,1.549,0,0,1,1.386,1.387C985.684,259.665,985.655,260.123,985.655,260.612Z" transform="translate(-968.766 -239.014)" fill="#fff"/>
    <path id="Path_5889" data-name="Path 5889" d="M896.543,177.163a5.551,5.551,0,0,1,1.434-.7,19.817,19.817,0,0,1,3.463-.812,54.469,54.469,0,0,1,9.694-.549,45.4,45.4,0,0,1,7.349.7,13.737,13.737,0,0,1,3.408,1c.2.094.386.213.629.349-.3.157-.545.3-.806.419a14.264,14.264,0,0,1-3.1.888,42.127,42.127,0,0,1-5.389.639,61.516,61.516,0,0,1-6.376.056,43.629,43.629,0,0,1-6.2-.655,15.016,15.016,0,0,1-3.3-.923C897.087,177.462,896.837,177.315,896.543,177.163ZM901,178.2a54.969,54.969,0,0,0,17.051.007,25.12,25.12,0,0,0-6.819-.985A32.982,32.982,0,0,0,901,178.2Z" transform="translate(-894.198 -167.231)" fill="#fff"/>
  </g>
</svg>
