<svg xmlns="http://www.w3.org/2000/svg" width="26.777" height="29.792" viewBox="0 0 26.777 29.792">
  <g id="Group_58" data-name="Group 58" transform="translate(-140.112 -1013)">
    <g id="Sports_Sci" data-name="Sports Sci" transform="translate(140.11 1012.95)">
      <path id="Path_5890" data-name="Path 5890" d="M40.263,87.215v.933H55.057V85.306a7.967,7.967,0,0,1-1.477-.342,2.37,2.37,0,0,1-1.437-2.2c-.028-.582,0-1.163,0-1.745,0-.519.2-.784.756-.768.846.022,1.695,0,2.541,0,.473,0,.675.215.672.672v8.808a1.443,1.443,0,0,1-1.4,1.446,1.49,1.49,0,0,1-1.521-1.328c-.025-.18-.037-.364-.062-.622h-1.4c-.271,1.409-.7,1.938-1.555,1.938s-1.272-.51-1.6-1.962H47.273c-.271,1.415-.706,1.953-1.555,1.962s-1.344-.563-1.6-1.959H42.763a5.165,5.165,0,0,1-.087.784,1.48,1.48,0,0,1-2.858.124A9.731,9.731,0,0,1,39.2,86.5c.081-2.706.833-3.732,3.253-4.289l.728-.952.7.781-.109.152h1.113l.858-.933.746.933h1.182V80.945a.594.594,0,0,1,.687-.672c.715,0,1.434-.04,2.14.028.227.022.426.33.622.507-.211.149-.414.4-.641.426-.569.059-1.148.019-1.819.019v1.263c0,.541-.246.768-.774.753s-1.054,0-1.368,0l-.849.945-.743-.911h-.933l-.8.911-.709-.911a2.322,2.322,0,0,0-2.177,2.864c.292,0,.6.044.905.044H52.877a2.059,2.059,0,0,1,.709.028,2.149,2.149,0,0,1,.538.463,2.432,2.432,0,0,1-.529.488,1.555,1.555,0,0,1-.622.025Zm14.785-3.023v-2.9H53.219C52.949,83.5,53.44,84.261,55.048,84.192ZM41.858,89.52l-.171-.286H40.5l.687.914Zm4.3-.283h-.886l-.168.187c.19.243.364.672.572.687.563.044.557-.411.482-.874Zm3.421-.022a4.426,4.426,0,0,0,.361.858.526.526,0,0,0,.485-.031,3.8,3.8,0,0,0,.264-.827ZM54,89.159a5.86,5.86,0,0,0,.4.933c.044.072.376.068.423,0a5.561,5.561,0,0,0,.376-.861Z" transform="translate(-29.333 -61.336)" fill="#fff"/>
      <path id="Path_5891" data-name="Path 5891" d="M34.574,20.639c-.342-.016-.55-.034-.762-.034H19.525c-.659,0-.889.183-.843.846.053.793,0,1.589.016,2.382.016.544-.23.765-.762.756-.818,0-1.642.031-2.46,0-.591-.031-.771.168-.765.765.031,2.644,0,5.287,0,7.937a2.2,2.2,0,0,1-.04.706c-.056.165-.28.395-.4.379a.827.827,0,0,1-.51-.376c-.084-.134-.037-.358-.037-.544,0-2.964,0-5.928.019-8.892a1.8,1.8,0,0,1,.463-1.107q1.633-1.735,3.368-3.368a1.757,1.757,0,0,1,1.1-.457c5.318-.031,10.636,0,15.955-.031.725,0,.98.255.977.973-.019,5.318,0,10.636,0,15.958a1.508,1.508,0,0,1-.078.622.594.594,0,0,1-.395.311.653.653,0,0,1-.467-.311,2.242,2.242,0,0,1-.072-.781V21.687ZM15.6,23.506h2.053V21.566Z" transform="translate(-11.774 -19.55)" fill="#fff"/>
      <path id="Path_5892" data-name="Path 5892" d="M15.736,79.16a4.247,4.247,0,0,1,.933-.059c.211.031.395.239.591.37-.171.193-.311.513-.516.56a7.2,7.2,0,0,1-3.906-.286,7.943,7.943,0,1,1,9.825-10.73,1.512,1.512,0,0,1,.218.588.687.687,0,0,1-.28.554.647.647,0,0,1-.588-.2,8.128,8.128,0,0,1-.482-.992,6.531,6.531,0,0,0-3.244-3.023,1.309,1.309,0,0,0-.98.1c-.669.348-1.284,1.1-1.931,1.107s-1.2-.762-1.866-1.11a1.518,1.518,0,0,0-.983-.1,3.353,3.353,0,0,0-.973.519c-1.673,1.11-1.795,1.322-1.095,3.175a1.3,1.3,0,0,1-.622,1.81c-1.608,1.113-1.627,1.288-.942,3.16.065.171.152.336.208.513a1.382,1.382,0,0,0,1.586,1.048c2.224-.044,1.754-.311,2.426,1.711C13.5,79.045,13.919,79.26,15.736,79.16Zm-1.216-13.8c.852.933,1.082.933,1.732,0ZM9.133,69.17l-.582,1.838C9.755,70.414,9.777,70.34,9.133,69.17Zm2.961,9.224c-.09-1.244-.2-1.344-1.474-1.107Z" transform="translate(-7.49 -50.336)" fill="#fff"/>
      <path id="Path_5893" data-name="Path 5893" d="M66.247,40.741V43.36c0,.522-.2.778-.746.771-2.706-.031-2.205.311-2.242-2.112-.022-1.322.016-2.647,0-3.965,0-.622.193-.868.818-.855,2.525.044,2.152-.311,2.177,2.115C66.253,39.79,66.25,40.266,66.247,40.741Zm-1.978,2.342h.911V38.194l-.911.044Z" transform="translate(-45.903 -31.675)" fill="#fff"/>
      <path id="Path_5894" data-name="Path 5894" d="M25.334,80.289c-.743.538-1.465,1.029-2.143,1.58a1.067,1.067,0,0,0-.249.7,1.832,1.832,0,0,0,.187.6c.2.6.23,1.412.644,1.745s1.2.109,1.813.224c.267.053.491.339.734.519l-.731.46h-.078c-2.432.115-2.432.115-3.194-2.211-.715-2.143-.715-2.143,1.132-3.49s1.866-1.362,3.751,0a4.786,4.786,0,0,1,.818.622c.143.162.137.451.2.684-.255.031-.585.18-.756.075C26.743,81.356,26.074,80.833,25.334,80.289Z" transform="translate(-17.4 -60.754)" fill="#fff"/>
      <path id="Path_5895" data-name="Path 5895" d="M41.664,27.187c-.075-.37-.23-.672-.149-.883.062-.156.426-.258.659-.271,1.76-.093,1.835-.022,1.689,1.754-.019.233-.258.445-.395.666-.19-.2-.386-.389-.569-.591a.908.908,0,0,1-.093-.243,14.577,14.577,0,0,1-6.164,2.628,18.972,18.972,0,0,1-1.969.218c-.395.025-.952.156-.973-.482s.522-.482.889-.5a13.572,13.572,0,0,0,7.075-2.3Z" transform="translate(-25.546 -23.964)" fill="#fff"/>
      <path id="Path_5896" data-name="Path 5896" d="M52.5,42.934H51.49v3.185a1.987,1.987,0,0,1-.025.709c-.081.2-.311.342-.47.51-.159-.174-.457-.342-.46-.516-.037-1.452-.04-2.908,0-4.354,0-.187.33-.494.532-.519a6.964,6.964,0,0,1,1.816,0,.911.911,0,0,1,.575.641c.056,1.372.053,2.749,0,4.121,0,.215-.339.42-.519.622-.152-.211-.429-.417-.435-.622C52.476,45.472,52.5,44.234,52.5,42.934Z" transform="translate(-37.127 -34.907)" fill="#fff"/>
      <path id="Path_5897" data-name="Path 5897" d="M37.74,48.687c.025-2.109-.311-1.944,1.953-1.944.952,0,1.036.09,1.039,1.048,0,.687-.019,1.378,0,2.062.022.594-.193.914-.821.858H39.83C37.366,50.681,37.78,50.97,37.74,48.687Zm1.944,1V47.8h-.9v1.882Z" transform="translate(-28.328 -38.249)" fill="#fff"/>
      <path id="Path_5898" data-name="Path 5898" d="M61.73,66.31A1.953,1.953,0,0,1,63.7,64.36a1.984,1.984,0,0,1,1.987,1.953,2.031,2.031,0,0,1-2.031,2.009A1.994,1.994,0,0,1,61.73,66.31Zm2.074-.967a1,1,0,0,0-1.089.992.933.933,0,0,0,.964.964.949.949,0,0,0,1.011-.983A.961.961,0,0,0,63.8,65.343Z" transform="translate(-44.86 -50.389)" fill="#fff"/>
      <path id="Path_5899" data-name="Path 5899" d="M24.938,51.305a1.76,1.76,0,0,1,.019-.7c.124-.255.358-.6.588-.622a5.6,5.6,0,0,1,1.735,0c.239.037.435.386.641.6.028.028,0,.1,0,.156.1,2.177-.255,2.516-2.438,2.134-.211-.037-.454-.364-.532-.622A3.3,3.3,0,0,1,24.938,51.305Zm1.984.563-.05-.933-.958.044.04.9Z" transform="translate(-19.492 -40.435)" fill="#fff"/>
    </g>
    <path id="Path_5900" data-name="Path 5900" d="M11587.563-3421.281l2.328-1.672,2.859,1.781.438,1.719-.984,2.484-4.016-.281-1-2.625-.125-1.141Z" transform="translate(-11442 4455)" fill="#fff"/>
    <circle id="Ellipse_113" data-name="Ellipse 113" cx="2" cy="2" r="2" transform="translate(157 1027)" fill="#fff"/>
    <rect id="Rectangle_893" data-name="Rectangle 893" width="2" height="6" transform="translate(158 1019)" fill="#fff"/>
    <rect id="Rectangle_894" data-name="Rectangle 894" width="2" height="5" transform="translate(154 1020)" fill="#fff"/>
    <rect id="Rectangle_895" data-name="Rectangle 895" width="2" height="3" transform="translate(150 1022)" fill="#fff"/>
    <rect id="Rectangle_896" data-name="Rectangle 896" width="2" height="2" transform="translate(146 1023)" fill="#fff"/>
  </g>
</svg>
