<svg xmlns="http://www.w3.org/2000/svg" width="15.509" height="16" viewBox="0 0 15.509 16">
  <path id="Tournament" d="M60.421,23h3.088v.981c-.022.136-.051.271-.066.408a7.479,7.479,0,0,1-.774,2.777,2.457,2.457,0,0,1-1.342,1.268.547.547,0,0,0-.41.545,5.072,5.072,0,0,1-3.374,4.346,11.858,11.858,0,0,1-1.229.344v4.186c.666,0,1.307-.012,1.947.009.134,0,.377.128.377.2a6.644,6.644,0,0,1-.113.939H52.912a.961.961,0,0,1-.127-.2c-.2-.649.006-.938.671-.938h1.692V34.509c0-.279.075-.614-.052-.819-.1-.155-.462-.14-.706-.206a5.215,5.215,0,0,1-3.878-4.627.442.442,0,0,0-.286-.411,3.761,3.761,0,0,1-.979-.707,3.84,3.84,0,0,1-.893-1.836c-.147-.634-.239-1.28-.354-1.921V23h3.088a2.23,2.23,0,0,0,.337.052q4.032.01,8.064.011C59.8,23.063,60.11,23.022,60.421,23Zm-8.773,1.22c0,1.533-.035,3.03.009,4.524a4.076,4.076,0,0,0,8.139-.4c0-1.263,0-2.528,0-3.79,0-.113-.012-.223-.02-.34Zm9.421,3.172a4.776,4.776,0,0,0,1.294-3.25H61.069ZM49.135,24.138c.2,1.179.278,2.354,1.293,3.224V24.138Z" transform="translate(-48 -23)" fill="#fff"/>
</svg>
