<svg xmlns="http://www.w3.org/2000/svg" width="22.445" height="20" viewBox="0 0 22.445 20">
  <g id="Traing_Center" data-name="Traing Center" transform="translate(0 0.003)">
    <path id="Path_73" data-name="Path 73" d="M0,437.464a.581.581,0,0,1,.618-.383q10.609,0,21.217,0c.407,0,.656.228.6.544a.47.47,0,0,1-.409.4,1.665,1.665,0,0,1-.24.009q-10.565,0-21.129,0a.635.635,0,0,1-.66-.357Z" transform="translate(0 -418.042)" fill="navy"/>
    <path id="Path_74" data-name="Path 74" d="M80.979,236.34H88.3c.519,0,.664.145.664.663v6.4c0,.482-.164.65-.639.65H73.642c-.477,0-.642-.168-.642-.647v-6.42c0-.489.152-.644.639-.645Zm-7.008.954v5.791h2.765v-5.791Zm3.747,0v5.79h2.767v-5.79Zm3.752,5.788h2.78V237.3h-2.78Zm6.52.009V237.3H85.224v5.789Z" transform="translate(-69.756 -226.222)" fill="navy"/>
    <path id="Path_75" data-name="Path 75" d="M158.233,17.372a4.387,4.387,0,1,1,4.4-4.379A4.391,4.391,0,0,1,158.233,17.372Zm-.047-4.964a6.1,6.1,0,0,1-3.2,1.659,3.469,3.469,0,0,0,1.807,2.03,6.085,6.085,0,0,1,2.03-2.993Zm.662-.683.731.8,1.911-.675A3.392,3.392,0,0,0,159.752,9.9ZM157.7,16.382a3.44,3.44,0,0,0,2.277-.437.227.227,0,0,0,.058-.2c-.084-.324-.168-.649-.283-.962-.109-.3-.256-.578-.4-.886A5.077,5.077,0,0,0,157.7,16.382Zm-.22-4.611c-.536-.257-1.016-.512-1.516-.72-.467-.194-.479-.174-.724.27a3.269,3.269,0,0,0-.419,1.8A5.081,5.081,0,0,0,157.48,11.77Zm1.364-2.177a3.507,3.507,0,0,0-2.485.533l1.764.944Zm2.828,3.254a4.885,4.885,0,0,0-1.494.515l.74,1.786a3.389,3.389,0,0,0,.754-2.3Z" transform="translate(-147.021 -8.6)" fill="navy"/>
    <path id="Path_76" data-name="Path 76" d="M20.654,142.121V152.4a1.737,1.737,0,0,1-.026.326.452.452,0,0,1-.45.373.458.458,0,0,1-.451-.347,1.15,1.15,0,0,1-.024-.282V141.8c0-.464.167-.631.635-.631h4.1a.5.5,0,0,1,.524.477.486.486,0,0,1-.547.472c-1.162,0-2.323,0-3.484,0Z" transform="translate(-18.827 -135.281)" fill="navy"/>
    <path id="Path_77" data-name="Path 77" d="M371.65,142.1h-2.225c-.526,0-1.052,0-1.578,0a.462.462,0,0,1-.485-.388.444.444,0,0,1,.241-.492.871.871,0,0,1,.339-.066q2.038-.006,4.076,0c.412,0,.586.181.587.59V152.5c0,.345-.142.537-.414.572a.447.447,0,0,1-.507-.346,1.655,1.655,0,0,1-.029-.348v-9.971Z" transform="translate(-351.028 -135.262)" fill="navy"/>
  </g>
</svg>
